<?xml version="1.0" encoding="UTF-8" standalone="no"?>
<!-- Created with Inkscape (http://www.inkscape.org/) -->

<svg
   xmlns:dc="http://purl.org/dc/elements/1.1/"
   xmlns:cc="http://creativecommons.org/ns#"
   xmlns:rdf="http://www.w3.org/1999/02/22-rdf-syntax-ns#"
   xmlns:svg="http://www.w3.org/2000/svg"
   xmlns="http://www.w3.org/2000/svg"
   xmlns:sodipodi="http://sodipodi.sourceforge.net/DTD/sodipodi-0.dtd"
   xmlns:inkscape="http://www.inkscape.org/namespaces/inkscape"
   version="1.1"
   id="svg815"
   width="557"
   height="492"
   viewBox="0 0 557 492"
   sodipodi:docname="敬a.svg"
   inkscape:version="0.92.4 (5da689c313, 2019-01-14)">
  <metadata
     id="metadata821">
    <rdf:RDF>
      <cc:Work
         rdf:about="">
        <dc:format>image/svg+xml</dc:format>
        <dc:type
           rdf:resource="http://purl.org/dc/dcmitype/StillImage" />
        <dc:title></dc:title>
      </cc:Work>
    </rdf:RDF>
  </metadata>
  <defs
     id="defs819" />
  <sodipodi:namedview
     pagecolor="#ffffff"
     bordercolor="#666666"
     borderopacity="1"
     objecttolerance="10"
     gridtolerance="10"
     guidetolerance="10"
     inkscape:pageopacity="0"
     inkscape:pageshadow="2"
     inkscape:window-width="1920"
     inkscape:window-height="1017"
     id="namedview817"
     showgrid="false"
     inkscape:zoom="1.7195122"
     inkscape:cx="278.5"
     inkscape:cy="246"
     inkscape:window-x="-8"
     inkscape:window-y="-8"
     inkscape:window-maximized="1"
     inkscape:current-layer="svg815" />
  <path
     style="fill:#000000;stroke:none;stroke-width:1px;stroke-linecap:butt;stroke-linejoin:miter;stroke-opacity:1;fill-opacity:1"
     d="m 314.04255,84.326241 c 8.72341,1.744681 8.72341,0 8.72341,0 0,0 8.14184,5.815603 9.30496,13.957447 1.16312,8.141842 -1.16312,94.212762 -25.00709,118.056742 -23.84397,23.84397 -43.61702,33.14893 -43.61702,33.14893 l 3.48936,16.28369 c 0,0 -3.48936,7.56028 15.12057,-4.07092 18.60993,-11.63121 41.87234,-35.47518 43.61702,-40.70922 1.74468,-5.23404 6.97872,-4.65248 11.6312,3.48936 4.65249,8.14184 8.72341,14.53901 19.19149,9.30496 10.46809,-5.23404 43.61703,-15.70212 50.01419,-19.19149 6.39716,-3.48936 45.3617,-5.8156 52.34042,-8.7234 6.97873,-2.9078 18.02837,-8.7234 -4.65248,-15.12057 -22.68085,-6.39716 -34.89362,-1.16312 -34.89362,-1.16312 l -80.25531,26.75178 -8.14185,-11.04965 c 0,0 15.70213,-23.84397 19.19149,-48.2695 3.48936,-24.42554 8.72341,-73.276599 8.72341,-73.276599 0,0 -2.32625,-15.702128 -21.51774,-16.865248 -19.19148,-1.163121 -27.91489,11.631205 -23.26241,17.446808 z"
     id="path825"
     inkscape:connector-curvature="0" />
  <path
     style="fill:#000000;stroke:none;stroke-width:1px;stroke-linecap:butt;stroke-linejoin:miter;stroke-opacity:1;fill-opacity:1"
     d="m 154.11348,250.65248 c 12.79432,6.39717 27.33333,19.77305 27.33333,19.77305 l 44.19858,-17.44681 c 0,0 11.04965,2.32624 6.97872,20.93617 -4.07092,18.60993 -25.58865,136.66667 -25.58865,136.66667 l -41.87234,-11.04965 c 0,0 40.70922,72.11348 36.6383,73.85816 -4.07092,1.74468 -1.74468,20.35461 11.04964,-9.30496 12.79433,-29.65958 22.68085,-65.71632 22.68085,-65.71632 0,0 50.59575,15.70213 64.5532,3.48937 13.95744,-12.21277 47.68794,-38.96454 47.68794,-38.96454 l 84.32624,80.25532 c 0,0 -1.74468,2.32624 47.68794,-10.46809 49.43263,-12.79433 55.82979,-18.02837 55.82979,-18.02837 l -52.34042,-8.14184 c 0,0 -21.51773,2.9078 -73.2766,-30.8227 -51.75887,-33.73049 -49.43262,-37.80142 -49.43262,-37.80142 l 18.02836,-51.1773 c 0,0 7.56029,-33.7305 -4.65248,-39.5461 -12.21276,-5.8156 -25.58865,1.74468 -25.58865,1.74468 l 5.23404,19.19149 c 0,0 -0.58156,23.84397 -4.65248,39.5461 -4.07092,15.70213 -9.30496,15.12057 -9.30496,15.12057 0,0 -2.90781,26.17021 -5.23405,26.75177 -2.32624,0.58156 -61.64539,40.12766 -61.64539,40.12766 l -34.89361,2.32624 11.6312,-66.29787 7.56029,-50.59575 47.10638,40.70922 29.65957,31.40426 8.72341,-23.84397 -40.12766,-35.47518 c 0,0 -35.47518,-17.44681 -43.03546,-18.02837 -7.56029,-0.58156 4.07092,-20.35461 4.07092,-20.35461 0,0 -17.44681,-21.51773 -33.14894,-25.00709 -15.70213,-3.48936 -38.38298,15.70213 -38.38298,15.70213 z"
     id="path831"
     inkscape:connector-curvature="0" />
  <path
     style="fill:#000000;stroke:none;stroke-width:1px;stroke-linecap:butt;stroke-linejoin:miter;stroke-opacity:1;fill-opacity:1"
     d="m 36.638298,337.30496 c 0,0 36.638298,-2.9078 41.29078,21.51774 4.652482,24.42553 5.815603,43.61702 5.815603,43.61702 0,0 5.815603,16.86524 14.539007,1.74468 8.723402,-15.12057 32.567372,-26.17022 32.567372,-26.17022 l 51.75887,-12.79432 c 0,0 13.95745,1.16312 11.6312,-6.39716 -2.32624,-7.56029 -9.88652,-8.72341 -9.88652,-8.72341 l -19.19149,5.23404 5.8156,-33.14893 c 0,0 18.02837,-9.30497 1.16312,-23.26241 -16.86524,-13.95745 -29.65957,-11.63121 -29.65957,-11.63121 l -16.28369,17.44681 -34.893615,11.6312 c 0,0 -16.865249,15.70213 3.489361,18.60993 20.354614,2.9078 30.241134,-6.39716 30.241134,-6.39716 l 13.37589,-9.30496 -2.9078,39.5461 -37.219862,10.46808 c 0,0 6.397162,-31.98582 -21.517731,-41.87234 -27.914893,-9.88653 -40.709219,-4.07092 -40.709219,-4.07092 z"
     id="path833"
     inkscape:connector-curvature="0" />
  <path
     style="fill:#000000;stroke:none;stroke-width:1px;stroke-linecap:butt;stroke-linejoin:miter;stroke-opacity:1;fill-opacity:1"
     d="m 97.702128,279.7305 c 0,0 41.872342,-29.65958 42.453902,-39.5461 0.58156,-9.88653 -14.53901,-22.68085 -14.53901,-22.68085 0,0 -7.56028,-0.58156 -13.37589,13.95744 -5.8156,14.53901 -26.170208,38.38298 -26.751768,41.29078 -0.581561,2.9078 2.326241,9.88653 12.212766,6.97873 z"
     id="path835"
     inkscape:connector-curvature="0" />
  <path
     style="fill:#000000;stroke:none;stroke-width:1px;stroke-linecap:butt;stroke-linejoin:miter;stroke-opacity:1;fill-opacity:1"
     d="m 139.57447,178.53901 c 0,0 13.37588,42.4539 22.68085,25.00709 9.30496,-17.44681 -2.9078,-78.51064 -2.9078,-78.51064 0,0 -25.00709,-33.148935 -42.4539,-40.709219 -17.446811,-7.560284 -15.70213,19.191489 -15.70213,19.191489 l 21.51773,37.21986 6.97872,13.37589 -40.127656,16.28368 c 0,0 -8.141844,-22.68085 -15.120568,-7.56028 -6.978723,15.12057 10.468085,42.4539 10.468085,42.4539 0,0 8.723405,7.56028 19.773049,0.58156 11.04965,-6.97872 34.89362,-27.33333 34.89362,-27.33333 z"
     id="path837"
     inkscape:connector-curvature="0" />
  <path
     style="fill:#000000;stroke:none;stroke-width:1px;stroke-linecap:butt;stroke-linejoin:miter;stroke-opacity:1;fill-opacity:1"
     d="m 189.58865,206.4539 c 4.65248,-8.7234 23.84397,-47.68794 23.84397,-47.68794 0,0 5.23405,12.79432 29.07802,1.74468 23.84397,-11.04965 44.19858,-21.51773 44.19858,-21.51773 0,0 17.44681,-4.65248 6.39716,-12.79433 -11.04964,-8.14184 -37.80142,-10.46808 -37.80142,-10.46808 l -27.33333,13.37588 9.88653,-66.297869 c 0,0 8.7234,-13.375887 0.58156,-21.517731 C 230.29787,33.148936 212.2695,7.5602837 212.2695,7.5602837 c 0,0 -41.29078,3.4893613 -27.33333,20.9361703 13.95745,17.446808 19.77305,14.539007 22.09929,23.262411 2.32624,8.723405 -1.74468,78.510635 -1.74468,78.510635 0,0 -12.79433,-8.7234 -12.79433,-2.32624 0,6.39717 11.04965,20.35461 11.04965,20.35461 l -26.17021,62.80851 -4.65249,11.04965 z"
     id="path839"
     inkscape:connector-curvature="0" />
</svg>
