<?xml version="1.0" encoding="UTF-8" standalone="no"?>
<!-- Created with Inkscape (http://www.inkscape.org/) -->

<svg
   xmlns:dc="http://purl.org/dc/elements/1.1/"
   xmlns:cc="http://creativecommons.org/ns#"
   xmlns:rdf="http://www.w3.org/1999/02/22-rdf-syntax-ns#"
   xmlns:svg="http://www.w3.org/2000/svg"
   xmlns="http://www.w3.org/2000/svg"
   xmlns:sodipodi="http://sodipodi.sourceforge.net/DTD/sodipodi-0.dtd"
   xmlns:inkscape="http://www.inkscape.org/namespaces/inkscape"
   version="1.1"
   id="svg815"
   width="513"
   height="464"
   viewBox="0 0 513 464"
   sodipodi:docname="當a.svg"
   inkscape:version="0.92.4 (5da689c313, 2019-01-14)">
  <metadata
     id="metadata821">
    <rdf:RDF>
      <cc:Work
         rdf:about="">
        <dc:format>image/svg+xml</dc:format>
        <dc:type
           rdf:resource="http://purl.org/dc/dcmitype/StillImage" />
        <dc:title></dc:title>
      </cc:Work>
    </rdf:RDF>
  </metadata>
  <defs
     id="defs819" />
  <sodipodi:namedview
     pagecolor="#ffffff"
     bordercolor="#666666"
     borderopacity="1"
     objecttolerance="10"
     gridtolerance="10"
     guidetolerance="10"
     inkscape:pageopacity="0"
     inkscape:pageshadow="2"
     inkscape:window-width="1920"
     inkscape:window-height="1017"
     id="namedview817"
     showgrid="false"
     inkscape:zoom="1.8232759"
     inkscape:cx="256.5"
     inkscape:cy="232"
     inkscape:window-x="-8"
     inkscape:window-y="-8"
     inkscape:window-maximized="1"
     inkscape:current-layer="svg815" />
  <path
     style="fill:#000000;stroke:none;stroke-width:1px;stroke-linecap:butt;stroke-linejoin:miter;stroke-opacity:1;fill-opacity:1"
     d="m 242.96927,55.394799 c 0,0 6.03309,10.969267 12.61465,6.58156 6.58156,-4.387707 17.00237,-6.58156 17.00237,-6.58156 0,0 0.54846,18.647754 -4.93617,22.486998 -5.48464,3.839243 -9.87234,12.614657 -18.09929,8.22695 -8.22695,-4.387707 -21.93854,-30.165485 -6.58156,-30.713948 z"
     id="path825"
     inkscape:connector-curvature="0" />
  <path
     style="fill:#000000;stroke:none;stroke-width:1px;stroke-linecap:butt;stroke-linejoin:miter;stroke-opacity:1;fill-opacity:1"
     d="m 312.62411,20.841608 c 0,0 -4.3877,12.614657 3.83925,14.80851 8.22695,2.193854 13.16312,7.130024 7.13002,15.905438 -6.0331,8.775413 -30.16548,41.683215 -30.16548,41.683215 l -56.49173,4.93617 c 0,0 -14.26005,-7.130024 -22.487,-8.22695 -8.22695,-1.096927 -35.10165,-9.872341 -38.39243,-26.874705 -3.29078,-17.002364 -6.0331,-19.744681 -6.0331,-19.744681 0,0 -13.16312,6.58156 -14.26005,15.356974 -1.09692,8.775414 -14.26004,20.841608 1.64539,31.810875 15.90544,10.969266 40.58629,18.099286 34.55319,19.196216 -6.03309,1.09693 -36.19858,9.87234 -39.48936,9.87234 -3.29078,0 -12.61465,-6.0331 -17.55082,-4.93617 -4.93617,1.09693 -12.0662,11.51773 -7.13003,17.55083 4.93617,6.0331 19.74468,20.84161 26.32624,14.80851 6.58156,-6.0331 6.0331,-13.71158 21.93854,-17.00236 15.90543,-3.29078 17.00236,-6.0331 42.23168,-11.51773 25.22931,-5.48464 112.43498,-15.35698 112.43498,-15.35698 0,0 51.0071,-2.74232 64.17022,2.74232 13.16312,5.48463 21.39007,2.74231 20.29314,12.06619 -1.09693,9.32388 -3.83924,26.32624 -3.83924,26.32624 0,0 6.58156,7.13003 12.06619,3.83925 5.48464,-3.29078 24.13239,-30.16549 24.13239,-30.16549 0,0 16.4539,-7.13002 12.06619,-10.96927 -4.3877,-3.83924 -12.61465,-7.678482 -21.93853,-16.453896 -9.32388,-8.775414 -13.16312,-17.002364 -25.22932,-15.905437 -12.06619,1.096926 -33.45626,10.969267 -33.45626,10.969267 l -70.75177,3.839243 27.42316,-20.841607 c 0,0 31.81088,-13.163121 24.68086,-29.617022 -7.13003,-16.4539 -30.71395,-26.326241 -30.71395,-26.326241 0,0 -18.09929,1.64539 -17.00237,8.226951 z"
     id="path4530"
     inkscape:connector-curvature="0" />
  <path
     style="fill:#000000;stroke:none;stroke-width:1px;stroke-linecap:butt;stroke-linejoin:miter;stroke-opacity:1;fill-opacity:1"
     d="m 48.264775,97.626478 c 1.096927,3.290782 14.260048,8.775412 20.841608,37.295512 6.58156,28.52009 1.64539,64.71867 1.64539,64.71867 0,0 -9.323877,14.26005 -10.420804,17.00237 -1.096926,2.74231 8.226951,11.51773 8.226951,11.51773 l 12.066193,14.26004 c 0,0 6.581561,20.84161 12.614658,0.54847 6.033097,-20.29315 9.323879,-66.91253 9.323879,-66.91253 v -37.84397 c 0,0 -11.517733,-29.61703 -27.42317,-33.45627 -15.905437,-3.83924 -26.874705,-7.130022 -26.874705,-7.130022 z"
     id="path4532"
     inkscape:connector-curvature="0" />
  <path
     style="fill:#000000;stroke:none;stroke-width:1px;stroke-linecap:butt;stroke-linejoin:miter;stroke-opacity:1;fill-opacity:1"
     d="m 199.64066,153.02128 c 0,0 -13.71158,15.90543 -3.83924,20.8416 9.87234,4.93617 8.22695,18.64776 8.22695,18.64776 l -8.22695,82.2695 6.0331,108.59575 c 0,0 -9.87235,2.19385 -4.93617,10.4208 4.93617,8.22695 13.16312,7.13002 12.06619,14.80851 -1.09693,7.67849 -7.67849,24.68085 1.09693,29.06856 8.77541,4.38771 31.81087,18.64775 27.97163,4.93617 -3.83925,-13.71158 -14.80851,-31.81088 -14.80851,-31.81088 l 28.52009,-4.93617 51.00709,-9.87234 c 0,0 10.96927,-4.93617 13.71159,7.13003 2.74231,12.06619 -1.09693,28.52009 16.4539,11.51773 17.55083,-17.00237 53.74941,-106.95036 53.74941,-106.95036 0,0 9.32387,-10.96926 -12.0662,-33.45626 -21.39007,-22.487 -29.06856,-38.9409 -40.03782,-34.00473 -10.96927,4.93617 -18.64776,15.90544 -18.64776,15.90544 0,0 -3.29078,14.80851 -31.26241,16.4539 -27.97163,1.64539 -44.42553,4.93617 -50.45863,2.19385 -6.03309,-2.74231 -16.4539,5.48464 -14.26004,9.87234 2.19385,4.38771 8.77541,14.26005 19.19621,17.00237 10.42081,2.74231 17.55083,-3.83925 17.55083,-3.83925 0,0 4.93617,7.13003 4.38771,19.19622 -0.54847,12.06619 -1.09693,13.16312 -1.09693,13.16312 l -23.58392,6.58156 c 0,0 -12.0662,-3.83924 -2.19386,4.93617 9.87234,8.77542 23.03546,13.71159 23.03546,13.71159 0,0 7.13003,10.4208 12.0662,11.51773 4.93617,1.09692 15.35697,-2.19386 15.90544,-12.0662 0.54846,-9.87234 0,-14.80851 0,-14.80851 0,0 13.16312,3.29078 19.74468,-4.93617 6.58156,-8.22695 7.13002,-15.35697 -1.09693,-15.35697 -8.22695,0 -17.00236,-1.64539 -17.00236,-1.64539 0,0 8.22695,-7.13003 4.3877,-14.26005 -3.83924,-7.13002 -20.84161,-13.16312 -20.84161,-13.16312 l 32.90781,-8.77541 29.06855,-5.48464 c 0,0 15.35698,1.64539 14.26005,15.90544 -1.09693,14.26005 -10.96927,66.91253 -13.16312,67.46099 -2.19385,0.54847 -115.72577,29.61702 -115.72577,29.61702 L 209.513,272.03783 c 0,0 11.51773,-82.26951 15.90544,-89.948 4.38771,-7.67848 -15.90544,-35.65011 -25.77778,-29.06855 z"
     id="path4542"
     inkscape:connector-curvature="0" />
  <path
     style="fill:#000000;stroke:none;stroke-width:1px;stroke-linecap:butt;stroke-linejoin:miter;stroke-opacity:1;fill-opacity:1"
     d="m 251.19622,185.38061 c 8.77541,-4.3877 19.19621,-13.71158 21.39007,-9.87234 2.19385,3.83925 -4.38771,21.93854 -4.38771,21.93854 l -19.19622,18.09929 c 0,0 -8.77541,21.93853 3.29078,20.84161 12.0662,-1.09693 48.81324,-20.29315 48.81324,-20.29315 0,0 19.74468,-8.77541 18.64776,-12.06619 -1.09693,-3.29078 -13.71159,-9.32388 -17.55083,-9.32388 -3.83924,0 5.48463,-15.90544 5.48463,-15.90544 0,0 16.4539,-13.71158 14.80851,-23.03546 -1.64539,-9.32387 -16.4539,-17.55082 -16.4539,-17.55082 l -9.87234,-13.16312 c 0,0 -14.26004,6.03309 -12.06619,11.51773 2.19385,5.48463 -18.64776,14.80851 -18.64776,14.80851 0,0 -31.81087,7.67848 -35.10165,5.48463 -3.29078,-2.19385 3.83924,29.06856 20.84161,28.52009 z"
     id="path4544"
     inkscape:connector-curvature="0" />
</svg>
