<?xml version="1.0" encoding="UTF-8" standalone="no"?>
<!-- Created with Inkscape (http://www.inkscape.org/) -->

<svg
   xmlns:dc="http://purl.org/dc/elements/1.1/"
   xmlns:cc="http://creativecommons.org/ns#"
   xmlns:rdf="http://www.w3.org/1999/02/22-rdf-syntax-ns#"
   xmlns:svg="http://www.w3.org/2000/svg"
   xmlns="http://www.w3.org/2000/svg"
   xmlns:sodipodi="http://sodipodi.sourceforge.net/DTD/sodipodi-0.dtd"
   xmlns:inkscape="http://www.inkscape.org/namespaces/inkscape"
   version="1.1"
   id="svg815"
   width="483"
   height="499"
   viewBox="0 0 483 499"
   sodipodi:docname="盡a.svg"
   inkscape:version="0.92.4 (5da689c313, 2019-01-14)">
  <metadata
     id="metadata821">
    <rdf:RDF>
      <cc:Work
         rdf:about="">
        <dc:format>image/svg+xml</dc:format>
        <dc:type
           rdf:resource="http://purl.org/dc/dcmitype/StillImage" />
        <dc:title></dc:title>
      </cc:Work>
    </rdf:RDF>
  </metadata>
  <defs
     id="defs819" />
  <sodipodi:namedview
     pagecolor="#ffffff"
     bordercolor="#666666"
     borderopacity="1"
     objecttolerance="10"
     gridtolerance="10"
     guidetolerance="10"
     inkscape:pageopacity="0"
     inkscape:pageshadow="2"
     inkscape:window-width="1920"
     inkscape:window-height="1017"
     id="namedview817"
     showgrid="false"
     inkscape:zoom="1.6953908"
     inkscape:cx="241.5"
     inkscape:cy="249.5"
     inkscape:window-x="-8"
     inkscape:window-y="-8"
     inkscape:window-maximized="1"
     inkscape:current-layer="svg815" />
  <path
     style="fill:#000000;stroke:none;stroke-width:1px;stroke-linecap:butt;stroke-linejoin:miter;stroke-opacity:1;fill-opacity:1"
     d="m 139.79078,87.295508 c 0,0 44.82742,24.773052 50.72577,16.515362 5.89834,-8.257679 7.66785,-58.983447 7.66785,-58.983447 0,0 -9.43736,-12.386525 -10.61702,-17.695035 -1.17967,-5.308511 -17.69504,-18.8747048 7.66784,-10.617022 25.36289,8.257684 40.69859,12.386525 44.23759,29.491726 3.53901,17.105201 -11.79669,40.698582 -11.79669,40.698582 l -4.71867,9.437352 53.67494,-23.593381 c 0,0 3.539,-12.976359 16.51536,-5.898345 12.97636,7.078014 30.6714,34.80024 30.6714,34.80024 0,0 12.97636,7.07801 7.07801,17.1052 -5.89834,10.02718 -22.41371,22.41371 -22.41371,22.41371 l 89.65485,-18.87471 c 0,0 40.10874,2.35934 50.72577,20.64421 10.61702,18.28487 -2.35934,21.82388 -2.35934,21.82388 l -141.56029,-8.84752 c 0,0 -11.20685,20.05438 -19.46453,20.64421 -8.25769,0.58983 -21.82388,-11.79669 -21.82388,-11.79669 l 11.20685,-49.5461 -63.11229,22.41371 4.71868,21.82388 53.67494,-10.02719 -7.07802,8.84752 4.12885,4.71868 -49.5461,4.71867 -3.53901,28.31206 c 0,0 67.83097,-18.28487 83.7565,-18.28487 15.92553,0 40.10875,7.07801 32.4409,14.15603 -7.66785,7.07801 -35.39007,12.97636 -46.59693,10.02718 -11.20685,-2.94917 -61.34279,12.97636 -61.34279,12.97636 l -10.61702,1.17967 5.30851,20.64421 92.01419,-23.59338 c 0,0 34.2104,-10.61702 43.64775,8.25768 9.43735,18.87471 20.05437,24.77305 -11.20686,23.00355 -31.26122,-1.7695 -53.0851,-7.66785 -61.93262,-6.48818 -8.84752,1.17967 -61.34279,17.1052 -61.34279,17.1052 l -2.35934,12.38653 56.03428,-15.3357 31.85107,0.58983 c 0,0 34.80023,-12.38652 44.82742,-1.17967 10.02719,11.20686 20.64421,13.5662 0,25.95272 -20.64421,12.38653 -42.46809,27.13239 -42.46809,27.13239 l -39.51891,8.25768 34.2104,-20.05437 c 0,0 33.62057,-13.56619 28.90189,-25.36288 -4.71867,-11.79669 -32.44089,-1.17967 -32.44089,-1.17967 0,0 0,14.74586 -20.05438,13.56619 -20.05437,-1.17967 -60.16312,-6.48818 -60.16312,-6.48818 l -3.53901,36.56974 c 0,0 1.17967,12.38653 -4.71867,10.61702 -5.89835,-1.7695 -29.49173,-17.1052 -29.49173,-17.1052 0,0 -11.79669,26.54255 -35.9799,17.1052 -24.18322,-9.43735 -43.05792,-23.00354 -23.59338,-23.59338 19.46454,-0.58983 67.83097,-11.20685 67.83097,-11.20685 0,0 26.54255,-31.85107 3.539,-19.46454 -23.00354,12.38652 -46.59692,24.77305 -55.44444,21.82387 -8.84752,-2.94917 -30.6714,-7.07801 -28.31206,-17.69503 2.35934,-10.61702 18.28487,-12.97636 18.28487,-12.97636 l 70.19031,-15.3357 c 0,0 6.48818,-12.97636 0,-14.15603 -6.48818,-1.17967 -27.72222,9.43736 -27.72222,9.43736 0,0 -35.97991,-2.94918 -22.41371,-16.51537 13.56619,-13.5662 54.26477,-17.69504 54.26477,-17.69504 0,0 5.89835,-25.95272 -3.53901,-27.72222 -9.43735,-1.7695 -113.248223,61.34279 -113.248223,61.34279 0,0 -4.718676,17.1052 -28.901892,-2.94917 C 30.08156,213.52009 7.6678487,205.85225 43.05792,202.31324 c 35.390071,-3.53901 147.45863,-39.51891 147.45863,-39.51891 0,0 7.66785,-9.43736 5.89834,-17.69504 -1.7695,-8.25768 -57.80378,-29.49172 -61.93262,-43.05792 -4.12884,-13.566193 5.30851,-14.745862 5.30851,-14.745862 z"
     id="path825"
     inkscape:connector-curvature="0" />
  <path
     style="fill:#000000;stroke:none;stroke-width:1px;stroke-linecap:butt;stroke-linejoin:miter;stroke-opacity:1;fill-opacity:1"
     d="m 122.68558,351.54137 c 0,0 8.25768,22.41371 15.92553,26.54255 7.66785,4.12885 40.10875,48.95627 31.85106,49.5461 -8.25768,0.58984 -86.115834,21.23405 -86.115834,21.23405 0,0 -27.132388,-11.20686 -24.77305,-18.87471 2.359338,-7.66785 -14.745863,4.71868 -0.589834,21.82388 14.156028,17.1052 22.413711,38.92908 37.159574,32.4409 14.745864,-6.48818 68.420804,-24.18322 71.369974,-25.36289 2.94917,-1.17967 85.52601,-20.05437 85.52601,-20.05437 l 72.54964,-5.89835 c 0,0 37.74941,1.76951 51.31561,10.61703 13.56619,8.84751 18.28487,22.41371 34.2104,14.15602 15.92553,-8.25768 23.00354,-8.25768 7.66785,-23.59338 -15.3357,-15.33569 -55.44445,-31.85106 -55.44445,-31.85106 l -44.82742,14.15603 22.41371,-68.42081 c 0,0 16.51537,-16.51536 10.02719,-27.13238 -6.48818,-10.61702 -36.56974,-22.41372 -36.56974,-22.41372 l -17.1052,5.89835 -4.12885,11.79669 -124.45508,30.08156 c 0,0 4.12884,-13.56619 -21.23404,-4.71868 -25.36289,8.84752 34.80024,32.4409 34.80024,32.4409 l 12.97635,-5.30851 c 0,0 8.25769,-1.17967 7.66785,6.48818 -0.58983,7.66785 -2.35933,27.72222 -2.35933,27.72222 0,0 10.02718,25.36289 17.69503,7.66785 7.66785,-17.69503 14.15603,-30.67139 13.56619,-33.62056 -0.58983,-2.94918 -22.41371,-12.97636 -22.41371,-12.97636 l 33.62057,-12.38653 c 0,0 -7.07801,30.08156 1.17967,37.74941 8.25768,7.66785 14.74586,19.46454 21.82388,7.07801 7.07801,-12.38652 8.25768,-22.41371 4.71867,-25.36288 -3.539,-2.94917 -18.28487,-21.23404 -18.28487,-21.23404 0,0 34.80024,-16.51537 43.64776,-11.20686 8.84751,5.30851 12.97636,6.48818 8.25768,17.69504 -4.71868,11.20685 -7.07801,30.67139 -7.07801,30.67139 0,0 -20.64421,-1.7695 -18.28487,5.30851 2.35933,7.07802 21.23404,18.87471 15.92553,21.23405 -5.30851,2.35933 -102.04137,16.51536 -102.04137,16.51536 l -7.07802,-42.46808 -46.00709,-33.62057 c 0,0 -17.1052,-15.3357 -17.1052,-2.35934 z"
     id="path827"
     inkscape:connector-curvature="0" />
</svg>
