<?xml version="1.0" encoding="UTF-8" standalone="no"?>
<!-- Created with Inkscape (http://www.inkscape.org/) -->

<svg
   xmlns:dc="http://purl.org/dc/elements/1.1/"
   xmlns:cc="http://creativecommons.org/ns#"
   xmlns:rdf="http://www.w3.org/1999/02/22-rdf-syntax-ns#"
   xmlns:svg="http://www.w3.org/2000/svg"
   xmlns="http://www.w3.org/2000/svg"
   xmlns:sodipodi="http://sodipodi.sourceforge.net/DTD/sodipodi-0.dtd"
   xmlns:inkscape="http://www.inkscape.org/namespaces/inkscape"
   version="1.1"
   id="svg815"
   width="534"
   height="510"
   viewBox="0 0 534 510"
   sodipodi:docname="竭a.svg"
   inkscape:version="0.92.4 (5da689c313, 2019-01-14)">
  <metadata
     id="metadata821">
    <rdf:RDF>
      <cc:Work
         rdf:about="">
        <dc:format>image/svg+xml</dc:format>
        <dc:type
           rdf:resource="http://purl.org/dc/dcmitype/StillImage" />
        <dc:title></dc:title>
      </cc:Work>
    </rdf:RDF>
  </metadata>
  <defs
     id="defs819" />
  <sodipodi:namedview
     pagecolor="#ffffff"
     bordercolor="#666666"
     borderopacity="1"
     objecttolerance="10"
     gridtolerance="10"
     guidetolerance="10"
     inkscape:pageopacity="0"
     inkscape:pageshadow="2"
     inkscape:window-width="1920"
     inkscape:window-height="1017"
     id="namedview817"
     showgrid="false"
     inkscape:zoom="1.6588235"
     inkscape:cx="267"
     inkscape:cy="255"
     inkscape:window-x="-8"
     inkscape:window-y="-8"
     inkscape:window-maximized="1"
     inkscape:current-layer="svg815" />
  <path
     style="fill:#000000;stroke:none;stroke-width:1px;stroke-linecap:butt;stroke-linejoin:miter;stroke-opacity:1;fill-opacity:1"
     d="m 119.96454,68.723404 c 0,0 25.92198,18.687944 27.7305,31.347516 1.80851,12.65958 -12.05674,28.93617 6.6312,20.49646 18.68794,-8.43972 26.52482,-2.41135 19.29078,-27.730501 C 166.38298,67.51773 119.96454,68.723404 119.96454,68.723404 Z"
     id="path825"
     inkscape:connector-curvature="0" />
  <path
     style="fill:#000000;stroke:none;stroke-width:1px;stroke-linecap:butt;stroke-linejoin:miter;stroke-opacity:1;fill-opacity:1"
     d="M 89.219858,166.98582 C 94.64539,165.78014 193.51064,130.8156 193.51064,130.8156 c 0,0 4.21986,-4.82269 19.89362,3.61702 15.67375,8.43972 33.15602,23.51064 7.83687,23.51064 -25.31914,0 -66.91489,6.02837 -66.91489,6.02837 L 92.836879,192.9078 c 0,0 -5.425531,9.04255 -13.865248,0 -8.439716,-9.04255 -26.524822,-23.51064 -21.099291,-36.77305 5.425532,-13.26241 1.808511,-15.67376 31.347518,10.85107 z"
     id="path827"
     inkscape:connector-curvature="0" />
  <path
     style="fill:#000000;stroke:none;stroke-width:1px;stroke-linecap:butt;stroke-linejoin:miter;stroke-opacity:1;fill-opacity:1"
     d="m 86.205674,244.14894 c 0,4.82269 3.014184,12.05673 13.262411,30.14184 10.248225,18.08511 12.056735,20.49645 7.836875,21.70213 -4.21985,1.20567 -67.517726,18.0851 -67.517726,18.0851 0,0 -33.1560283,-19.29078 -30.7446808,-7.23404 2.4113478,12.05674 -7.8368794,25.31915 15.0709218,36.17021 22.907802,10.85107 24.113475,4.8227 24.113475,4.8227 0,0 -13.865248,2.41135 27.12766,-18.68794 40.99291,-21.09929 104.29078,-33.15603 104.29078,-33.15603 l 44.60993,3.01418 c 0,0 9.64539,-4.82269 2.41135,-10.85106 -7.23405,-6.02837 -28.93617,-13.86525 -28.93617,-13.86525 L 170,280.31915 c 0,0 12.65957,-33.75887 22.9078,-52.44681 10.24823,-18.68794 18.68794,-24.71631 -0.60284,-35.56738 -19.29078,-10.85106 -34.3617,-13.26241 -31.34751,-1.20567 3.01418,12.05674 13.86525,23.51064 8.43971,36.17021 -5.42553,12.65958 -22.30496,56.66667 -22.30496,56.66667 l -21.09929,3.01418 c 0,0 3.61702,-15.67375 -7.23404,-25.31914 -10.85107,-9.64539 -27.730501,-24.11348 -24.716317,-27.12766 3.014185,-3.01419 -16.879432,-1.20568 -7.836879,9.64539 z"
     id="path829"
     inkscape:connector-curvature="0" />
  <path
     style="fill:#000000;stroke:none;stroke-width:1px;stroke-linecap:butt;stroke-linejoin:miter;stroke-opacity:1;fill-opacity:1"
     d="m 306.24113,33.758865 c 0,0 15.07093,17.48227 50.03547,-0.602837 34.96453,-18.085106 36.17021,-27.1276592 54.25531,-9.64539 18.08511,17.48227 23.51064,20.496454 15.67376,45.815603 -7.83688,25.319149 -32.55319,147.695039 -32.55319,147.695039 0,0 -3.01418,13.86524 19.89362,6.6312 22.9078,-7.23404 24.71631,-15.07092 31.95035,-19.89361 7.23405,-4.8227 40.99291,9.64539 43.40426,14.46808 2.41135,4.8227 34.96454,12.65957 24.11347,31.95035 -10.85106,19.29079 -39.78723,124.78724 -78.97163,173.01419 -39.18439,48.22695 -48.82978,60.88652 -65.70922,60.88652 -16.87943,0 -9.64539,-73.5461 -9.64539,-73.5461 l 43.40426,13.86525 c 0,0 53.04964,-78.36879 56.66667,-98.26241 3.61702,-19.89362 11.4539,-69.32624 11.4539,-69.32624 0,0 7.23404,-15.07092 -19.29078,-12.05674 -26.52483,3.01419 -70.53192,8.43972 -70.53192,8.43972 0,0 -19.29078,9.64539 -24.11347,-14.46809 -4.8227,-24.11347 -3.61703,-24.11347 4.82269,-20.49645 8.43972,3.61702 12.05674,4.21986 12.05674,4.21986 v -44.60993 l -54.25532,17.48227 -7.23404,9.64539 c 0,0 24.11347,7.23404 16.87943,19.29078 -7.23404,12.05674 -15.07092,17.48227 -15.07092,17.48227 l -89.21986,57.2695 c 0,0 0.60284,-16.87943 4.21986,-18.0851 3.61702,-1.20568 69.92908,-59.68086 69.92908,-59.68086 0,0 6.6312,-14.46808 -1.20568,-12.65957 -7.83688,1.80851 -13.86525,15.07092 -21.09929,9.64539 -7.23404,-5.42553 -22.9078,-15.67376 -18.68794,-24.11347 4.21986,-8.43972 -2.41135,-11.45391 15.07092,-9.64539 17.48227,1.80851 23.51064,-2.41135 23.51064,-2.41135 0,0 -7.83688,-57.26951 -13.26241,-66.9149 -5.42554,-9.64539 -28.33334,-14.46808 -19.89362,-44.007088 8.43972,-29.539007 9.04255,-34.964539 15.67376,-16.276596 6.6312,18.687943 19.89362,37.375887 26.52482,48.226954 6.63121,10.85106 34.96454,-4.822699 50.03546,-6.631209 15.07092,-1.808511 26.52482,-10.851064 16.2766,10.851059 -10.24823,21.70213 -16.2766,36.77305 -21.09929,34.36171 -4.8227,-2.41135 -40.39007,-3.01419 -40.39007,-3.01419 l 6.02836,31.95036 63.29788,-16.87944 7.23404,-84.999996 c 0,0 -13.86525,-9.64539 -27.12766,-3.014184 -13.26241,6.631206 -7.23404,21.099291 -23.51064,10.248227 C 319.50355,65.106383 290.56738,31.347518 306.24113,33.758865 Z"
     id="path831"
     inkscape:connector-curvature="0" />
  <path
     style="fill:#000000;stroke:none;stroke-width:1px;stroke-linecap:butt;stroke-linejoin:miter;stroke-opacity:1;fill-opacity:1"
     d="m 310.46099,294.78723 41.59575,-9.04255 c 0,0 27.73049,4.21986 21.70213,11.4539 -6.02837,7.23404 -46.41844,28.93617 -46.41844,28.93617 0,0 -1.20568,2.41135 -11.45391,-4.82269 -10.24822,-7.23405 -28.93617,-29.53901 -5.42553,-26.52483 z"
     id="path833"
     inkscape:connector-curvature="0" />
  <path
     style="fill:#000000;stroke:none;stroke-width:1px;stroke-linecap:butt;stroke-linejoin:miter;stroke-opacity:1;fill-opacity:1"
     d="m 259.21986,278.51064 c 12.65957,5.42553 23.51064,1.80851 24.71631,12.65957 1.20567,10.85107 -10.24823,31.95036 -5.42553,46.41844 4.82269,14.46809 13.86525,39.1844 13.86525,39.1844 l 66.91489,-16.2766 c 0,0 4.8227,-25.31915 13.86525,-21.70212 9.04255,3.61702 24.71631,34.3617 24.71631,34.3617 0,0 9.04255,8.43971 -3.61702,10.85106 -12.65958,2.41135 -86.20567,15.07092 -88.61702,16.2766 -2.41135,1.20567 -7.23404,10.85106 -16.2766,10.24822 -9.04255,-0.60283 -27.12766,-12.05673 -21.70213,-22.9078 5.42554,-10.85106 -2.41134,-31.34751 -2.41134,-31.34751 0,0 -23.51064,-29.53901 -15.67376,-53.65249 7.83688,-24.11347 9.64539,-24.11347 9.64539,-24.11347 z"
     id="path835"
     inkscape:connector-curvature="0" />
</svg>
