<?xml version="1.0" standalone="no"?>
<!DOCTYPE svg PUBLIC "-//W3C//DTD SVG 1.1//EN" "http://www.w3.org/Graphics/SVG/1.1/DTD/svg11.dtd" >
<svg xmlns="http://www.w3.org/2000/svg" xmlns:xlink="http://www.w3.org/1999/xlink" version="1.1" viewBox="0 0 256 256">
  <g transform="matrix(1 0 0 -1 0 204)">
   <path fill="currentColor"
d="M59 199q5 -6 8 -9q1 -2 0 -3q-1 -3 -2 -8v-6q-3 -12 -2 -40q2 1 5 3q3 1 6 3t4 -2q0 -5 -5 -7q-6 -2 -10 -5q-1 -4 -1 -14v-9q2 -2 5 -3q11 -5 15 -9q3 -4 1 -3l2 -2q-1 -3 -8 0q-2 0 -3 2q0 2 -11 8q1 0 -1 2v-93q-2 -9 5 -18q1 -2 -2 -4t-3 -1q-12 19 -16 35q-2 3 2 2
v-2q3 -6 7 -8q2 -2 3 -1t1 5q1 26 -1 83q-18 -45 -44 -55q-3 0 0 2q22 13 38 55q4 10 5 26q-11 -5 -21 -8q-6 -4 -20 2q-3 1 1 2q20 0 40 11q0 4 1 17q0 13 1 18q1 23 -1 30v3q-1 1 1 1zM119 194q-4 4 1 2q17 -10 26 -19q17 2 43 1q11 0 20 -16q2 -3 1 -5q-1 -1 -4 0
q-25 3 -59 -6q-8 -1 -1 1q19 8 31 11q10 1 16 4q3 2 3 5q-1 3 -4 4q-10 1 -19 0q-7 0 -26 -2q1 -11 -4 -12q-8 -1 -12 8q-2 -1 -3 -1q-9 -4 -14 -5h-4q-3 1 0 2q5 2 11 3q5 2 9 4q0 13 -11 21zM159 39q4 6 9 2t12 -11q4 -7 -2 -8q-5 0 -9 -5t-12 -11l-3 -3q9 0 12 -1h7
q4 -2 1 -7q-6 -1 -9 0q-8 5 -27 4q-3 1 0 1h2t5 1q9 11 16 27q0 2 -1 3t-3 1q-3 -1 -9 -4q-3 -1 -4 -1q-6 -3 -12 -3q-3 1 0 2q4 2 12 5q1 0 3 1q4 1 9 5q1 1 3 2zM145 101q11 3 15 -5q13 -32 37 -60q3 -7 17 -7q21 -5 35 -11q2 -2 2 -3t-2 0q-19 3 -40 7q-8 0 -15 10
q-24 30 -37 59q-5 9 -12 8q-3 0 0 2zM132 110q2 3 6 -2q1 -2 0 -4h-1q-9 -7 -21 -38q-21 -46 -39 -64q-3 -2 -4 -1q-1 0 1 3q19 24 39 65q11 28 19 41zM114 36q0 3 1 0q2 -10 4 -13q0 -3 1 -6t2 -5q0 -11 13 -19q2 -4 -2 -5q-8 2 -17 12q-3 2 0 8q1 2 0 7q-2 7 -2 21z
M132 130q5 2 1 0q-6 -5 -12 -11q-2 -4 -6 -7t-2 -6q1 -4 -3 -4q-8 6 -7 15q1 4 4 2q2 -3 6 0q5 2 12 6q4 3 7 5zM103 163q3 1 1 -2q-8 -10 -3 -15q4 -5 2 -9q-4 -4 -8 -1q-11 15 8 27zM175 145v-1q4 4 9 -4q1 -3 0 -3q0 -1 -2 0q-3 0 -12 -2q1 0 -1 0q-5 -3 -12 -4h-3
q-5 -1 -1 2q13 5 22 12z" />
  </g>

</svg>
