<?xml version="1.0" encoding="UTF-8" standalone="no"?>
<!-- Created with Inkscape (http://www.inkscape.org/) -->

<svg
   xmlns:dc="http://purl.org/dc/elements/1.1/"
   xmlns:cc="http://creativecommons.org/ns#"
   xmlns:rdf="http://www.w3.org/1999/02/22-rdf-syntax-ns#"
   xmlns:svg="http://www.w3.org/2000/svg"
   xmlns="http://www.w3.org/2000/svg"
   xmlns:sodipodi="http://sodipodi.sourceforge.net/DTD/sodipodi-0.dtd"
   xmlns:inkscape="http://www.inkscape.org/namespaces/inkscape"
   version="1.1"
   id="svg3713"
   width="487"
   height="439"
   viewBox="0 0 487 439"
   sodipodi:docname="力a.svg"
   inkscape:version="0.92.4 (5da689c313, 2019-01-14)">
  <metadata
     id="metadata3719">
    <rdf:RDF>
      <cc:Work
         rdf:about="">
        <dc:format>image/svg+xml</dc:format>
        <dc:type
           rdf:resource="http://purl.org/dc/dcmitype/StillImage" />
        <dc:title></dc:title>
      </cc:Work>
    </rdf:RDF>
  </metadata>
  <defs
     id="defs3717" />
  <sodipodi:namedview
     pagecolor="#ffffff"
     bordercolor="#666666"
     borderopacity="1"
     objecttolerance="10"
     gridtolerance="10"
     guidetolerance="10"
     inkscape:pageopacity="0"
     inkscape:pageshadow="2"
     inkscape:window-width="1920"
     inkscape:window-height="1017"
     id="namedview3715"
     showgrid="false"
     inkscape:zoom="1.9271071"
     inkscape:cx="238.33327"
     inkscape:cy="219.5"
     inkscape:window-x="-8"
     inkscape:window-y="-8"
     inkscape:window-maximized="1"
     inkscape:current-layer="svg3713" />
  <path
     style="fill:#1a1a1a;stroke:none;stroke-width:1px;stroke-linecap:butt;stroke-linejoin:miter;stroke-opacity:1;fill-opacity:1"
     d="m 261.013,110.52837 c 43.58865,-12.453902 35.28605,-12.972814 43.58865,-12.453902 8.30261,0.518913 21.27542,9.859342 21.27542,9.859342 l 2.07565,50.33451 -5.70804,67.45863 c 0,0 -4.67021,34.76714 -6.74586,47.22104 -2.07565,12.4539 -12.4539,46.18322 -12.4539,46.18322 L 248.5591,307.71513 c 0,0 20.7565,29.0591 24.38889,36.32388 3.63239,7.26477 14.01064,33.2104 14.01064,33.2104 0,0 6.22695,3.63239 9.34042,3.11347 3.11348,-0.51891 19.19977,-17.12411 19.19977,-17.12411 l 23.86997,-52.92908 c 0,0 7.26478,-50.85343 5.18913,-52.41016 -2.07565,-1.55674 3.11347,-44.10757 4.1513,-58.11821 1.03782,-14.01063 14.01064,-83.026 17.64303,-84.58274 3.63238,-1.55674 8.82151,-26.98345 8.82151,-26.98345 0,0 -18.68085,-22.832151 -23.86998,-24.907801 -5.18912,-2.075651 -34.76714,-8.302601 -34.76714,-8.302601 l -5.18912,10.897163 -33.72932,12.972813 c 0,0 4.1513,-17.643026 3.63239,-20.756501 -0.51891,-3.113475 -11.93499,-29.059101 -11.93499,-29.059101 0,0 -5.70803,-6.745863 -9.34042,-6.745863 -3.63239,0 -30.61584,3.632387 -30.61584,3.632387 0,0 -14.01064,3.632388 -15.56738,6.226951 -1.55674,2.594562 -6.74586,19.718676 -6.74586,19.718676 0,0 7.78369,8.821513 10.89716,7.783688 3.11348,-1.037825 28.02128,8.821513 28.02128,8.821513 0,0 4.67021,3.113475 3.63239,5.708038 -1.03783,2.594562 -4.67022,12.972813 -4.67022,12.972813 l -57.59929,8.821513 -18.68085,-9.340426 c 0,0 -3.63239,-5.708037 -9.34042,-2.07565 -5.70804,3.632388 -3.11348,16.605198 -3.11348,16.605198 l 21.27542,23.86998 c 0,0 12.97281,14.01064 22.31323,8.3026 9.34043,-5.70804 34.24823,-15.56738 34.24823,-15.56738 l -33.72931,81.46927 -61.75059,112.60402 -53.966908,78.35579 -29.059101,33.2104 37.880614,-26.98345 c 0,0 25.426715,-26.98345 35.804965,-39.43735 10.37825,-12.4539 53.44799,-79.91253 53.44799,-79.91253 l 33.2104,-66.4208 36.32388,-78.35579 z"
     id="path3723"
     inkscape:connector-curvature="0" />
  <path
     style="fill:#000000;stroke:#000000;stroke-width:1px;stroke-linecap:butt;stroke-linejoin:miter;stroke-opacity:1;fill-opacity:1"
     d="M 261.013,110.52837 Z"
     id="path4532"
     inkscape:connector-curvature="0" />
  <path
     style="fill:none;stroke:#000000;stroke-width:1px;stroke-linecap:butt;stroke-linejoin:miter;stroke-opacity:1"
     d="m 261.013,110.52837 v 0"
     id="path4534"
     inkscape:connector-curvature="0" />
  <path
     style="fill:none;stroke:#000000;stroke-width:1px;stroke-linecap:butt;stroke-linejoin:miter;stroke-opacity:1"
     d="m 261.013,110.52837 v 0"
     id="path4536"
     inkscape:connector-curvature="0" />
  <path
     style="fill:#1a1a1a;stroke:#000000;stroke-width:1px;stroke-linecap:butt;stroke-linejoin:miter;stroke-opacity:1;fill-opacity:1"
     d="m 261.013,110.52837 v 0"
     id="path4538"
     inkscape:connector-curvature="0" />
  <path
     style="fill:none;stroke:#000000;stroke-width:1px;stroke-linecap:butt;stroke-linejoin:miter;stroke-opacity:1"
     d="M 261.013,110.52837 Z"
     id="path4540"
     inkscape:connector-curvature="0" />
  <path
     style="fill:none;stroke:#000000;stroke-width:1px;stroke-linecap:butt;stroke-linejoin:miter;stroke-opacity:1"
     d="M 261.013,110.52837 Z"
     id="path4542"
     inkscape:connector-curvature="0" />
</svg>
