<?xml version="1.0" encoding="UTF-8" standalone="no"?>
<!-- Created with Inkscape (http://www.inkscape.org/) -->

<svg
   xmlns:dc="http://purl.org/dc/elements/1.1/"
   xmlns:cc="http://creativecommons.org/ns#"
   xmlns:rdf="http://www.w3.org/1999/02/22-rdf-syntax-ns#"
   xmlns:svg="http://www.w3.org/2000/svg"
   xmlns="http://www.w3.org/2000/svg"
   xmlns:sodipodi="http://sodipodi.sourceforge.net/DTD/sodipodi-0.dtd"
   xmlns:inkscape="http://www.inkscape.org/namespaces/inkscape"
   version="1.1"
   id="svg3713"
   width="538"
   height="525"
   viewBox="0 0 538 525"
   sodipodi:docname="å›a.svg"
   inkscape:version="0.92.4 (5da689c313, 2019-01-14)">
  <metadata
     id="metadata3719">
    <rdf:RDF>
      <cc:Work
         rdf:about="">
        <dc:format>image/svg+xml</dc:format>
        <dc:type
           rdf:resource="http://purl.org/dc/dcmitype/StillImage" />
        <dc:title></dc:title>
      </cc:Work>
    </rdf:RDF>
  </metadata>
  <defs
     id="defs3717" />
  <sodipodi:namedview
     pagecolor="#ffffff"
     bordercolor="#666666"
     borderopacity="1"
     objecttolerance="10"
     gridtolerance="10"
     guidetolerance="10"
     inkscape:pageopacity="0"
     inkscape:pageshadow="2"
     inkscape:window-width="1920"
     inkscape:window-height="1017"
     id="namedview3715"
     showgrid="false"
     inkscape:zoom="1.6114286"
     inkscape:cx="168.1578"
     inkscape:cy="262.5"
     inkscape:window-x="-8"
     inkscape:window-y="-8"
     inkscape:window-maximized="1"
     inkscape:current-layer="svg3713" />
  <path
     style="fill:#000000;stroke:none;stroke-width:1px;stroke-linecap:butt;stroke-linejoin:miter;stroke-opacity:1;fill-opacity:1"
     d="m 268.08511,259.39716 45.92198,50.88653 8.06738,17.99645 7.44681,42.19858 90.60283,-24.82269 1.24114,-64.53901 -65.78014,21.09929 -26.6844,13.65248 -16.13475,-6.82624 -33.51064,-44.68085 21.09929,9.92908 23.58156,3.7234 91.84397,-31.02836 c 0,0 6.20568,-17.99646 18.61702,-14.89362 12.41135,3.10284 27.30497,22.34042 27.30497,22.34042 0,0 13.65248,3.72341 13.65248,8.68795 0,4.96454 -4.96454,19.23759 -4.96454,19.23759 L 458.59929,286.70213 443.70567,350 c 0,0 27.92554,5.58511 17.99646,13.03191 -9.92908,7.44681 -15.51419,11.79079 -15.51419,11.79079 l -16.75532,-3.72341 -94.32624,21.09929 c 0,0 1.86171,14.89362 0.62057,17.37589 -1.24113,2.48227 -11.17021,6.20567 -11.17021,6.20567 l -14.27305,-16.13475 -9.92908,-11.17021 c 0,0 -1.8617,-51.50709 -4.34397,-60.81561 -2.48227,-9.30851 -25.44326,-61.43617 -25.44326,-61.43617 h 8.68794 z"
     id="path4538"
     inkscape:connector-curvature="0" />
  <path
     style="fill:#000000;stroke:none;stroke-width:1px;stroke-linecap:butt;stroke-linejoin:miter;stroke-opacity:1;fill-opacity:1"
     d="m 283.59929,278.63475 29.16667,30.4078 -9.30851,-29.16666 -35.37234,-20.47873 19.23759,20.47873 z"
     id="path4540"
     inkscape:connector-curvature="0" />
  <path
     style="fill:#000000;stroke:none;stroke-width:1px;stroke-linecap:butt;stroke-linejoin:miter;stroke-opacity:1;fill-opacity:1"
     d="m 270.56738,266.2234 8.68794,-1.8617 -11.17021,-4.96454 z"
     id="path4542"
     inkscape:connector-curvature="0" />
  <path
     style="fill:#000000;stroke:none;stroke-width:1px;stroke-linecap:butt;stroke-linejoin:miter;stroke-opacity:1;fill-opacity:1"
     d="m 284.84043,286.08156 c 15.51418,-11.79078 47.78368,3.10284 15.51418,-11.79078 -32.2695,-14.89362 -32.2695,-14.89362 -32.2695,-14.89362 z"
     id="path4544"
     inkscape:connector-curvature="0" />
  <path
     style="fill:#000000;stroke:none;stroke-width:1px;stroke-linecap:butt;stroke-linejoin:miter;stroke-opacity:1;fill-opacity:1"
     d="m 282.35816,40.957447 c 6.20567,3.102837 19.23758,4.964539 19.23758,4.964539 l 76.32979,-17.375887 c 0,0 8.68795,-17.375886 19.23759,-9.929078 10.54965,7.446809 25.44326,26.684397 25.44326,26.684397 0,0 3.72341,21.719859 0,23.581561 -3.7234,1.861702 -17.37588,10.549645 -17.37588,10.549645 l -5.58511,15.514185 57.0922,-14.893618 c 0,0 35.37234,6.826242 37.85461,11.790781 2.48227,4.964539 4.34397,18.617018 4.34397,18.617018 0,0 -3.7234,1.86171 -22.34043,-1.24113 -18.61702,-3.10284 -57.09219,3.10284 -57.09219,3.10284 0,0 -26.6844,-0.62057 -27.30497,1.8617 -0.62057,2.48227 -15.51418,60.19503 -15.51418,60.19503 0,0 18.61702,-3.10283 44.68085,0 26.06383,3.10284 31.02837,4.34397 34.75177,9.92908 3.72341,5.58511 -1.24113,18.61702 -1.24113,18.61702 0,0 -19.23759,1.8617 -27.92554,-1.24113 -8.68794,-3.10284 -45.92198,-4.96454 -45.92198,-4.96454 l -34.75177,5.5851 -78.81206,20.47873 c 0,0 -28.5461,94.94681 -68.88298,149.55674 -40.33688,54.60992 -123.492908,123.4929 -123.492908,123.4929 0,0 -34.751773,22.34043 -40.957446,21.71986 -6.205674,-0.62057 -8.067376,-6.82624 -8.067376,-6.82624 0,0 2.482269,-14.27305 6.205674,-13.65248 3.723404,0.62057 3.723404,9.92908 17.375886,1.8617 13.652482,-8.06738 86.87943,-56.47163 129.69858,-127.21631 42.81915,-70.74468 65.15958,-121.63121 65.15958,-121.63121 l 5.5851,-19.23759 c 0,0 -21.09929,6.20568 -28.5461,17.37589 -7.44681,11.17021 -14.27305,10.54965 -14.27305,10.54965 l -21.71985,-19.23759 c 0,0 -19.23759,-14.27305 -12.41135,-18.61702 6.82624,-4.34398 28.5461,-1.86171 28.5461,-1.86171 l 56.47163,-14.27305 c 0,0 4.34397,3.10284 6.82624,-6.20567 2.48227,-9.30851 13.65248,-47.16312 13.65248,-47.16312 0,0 -4.34397,-4.34397 -14.89362,1.24113 -10.54964,5.58511 -55.23049,28.5461 -55.23049,28.5461 0,0 -11.79078,16.75532 -19.85816,0 -8.06737,-16.75532 -14.89361,-34.75177 -14.89361,-34.75177 0,0 -3.10284,-3.10284 24.20212,-8.06738 27.30497,-4.96453 72.60639,-19.23758 72.60639,-19.23758 0,0 1.8617,-9.92908 -2.48227,-13.03192 -4.34398,-3.10284 -15.51419,-21.719857 -15.51419,-21.719857 0,0 -0.62057,-11.170213 13.65248,0 14.27305,11.170213 26.6844,26.684397 26.6844,26.684397 l -1.24113,42.19858 -13.03192,46.54256 47.78369,-11.17022 29.16667,-6.20567 4.34397,-63.29787 -70.12412,22.96099 3.72341,-28.5461 61.43617,-14.27305 9.30851,-1.861702 c 0,0 12.41135,-34.751773 8.68794,-32.890071 -3.7234,1.861702 -17.37588,-0.620567 -17.37588,-0.620567 0,0 -13.03192,6.826241 -23.58156,9.929078 -10.54965,3.102837 -13.03192,8.687943 -19.23759,8.067376 -6.20568,-0.620568 -25.44326,-8.687944 -25.44326,-8.687944 0,0 -37.23405,-37.234042 -4.96454,-32.269503 z"
     id="path4548"
     inkscape:connector-curvature="0" />
</svg>
