<?xml version="1.0" encoding="UTF-8" standalone="no"?>
<!-- Created with Inkscape (http://www.inkscape.org/) -->

<svg
   xmlns:dc="http://purl.org/dc/elements/1.1/"
   xmlns:cc="http://creativecommons.org/ns#"
   xmlns:rdf="http://www.w3.org/1999/02/22-rdf-syntax-ns#"
   xmlns:svg="http://www.w3.org/2000/svg"
   xmlns="http://www.w3.org/2000/svg"
   xmlns:sodipodi="http://sodipodi.sourceforge.net/DTD/sodipodi-0.dtd"
   xmlns:inkscape="http://www.inkscape.org/namespaces/inkscape"
   version="1.1"
   id="svg3713"
   width="516"
   height="490"
   viewBox="0 0 516 490"
   sodipodi:docname="å­a.svg"
   inkscape:version="0.92.4 (5da689c313, 2019-01-14)">
  <metadata
     id="metadata3719">
    <rdf:RDF>
      <cc:Work
         rdf:about="">
        <dc:format>image/svg+xml</dc:format>
        <dc:type
           rdf:resource="http://purl.org/dc/dcmitype/StillImage" />
        <dc:title></dc:title>
      </cc:Work>
    </rdf:RDF>
  </metadata>
  <defs
     id="defs3717" />
  <sodipodi:namedview
     pagecolor="#ffffff"
     bordercolor="#666666"
     borderopacity="1"
     objecttolerance="10"
     gridtolerance="10"
     guidetolerance="10"
     inkscape:pageopacity="0"
     inkscape:pageshadow="2"
     inkscape:window-width="1920"
     inkscape:window-height="1017"
     id="namedview3715"
     showgrid="false"
     inkscape:zoom="1.7265306"
     inkscape:cx="163.88061"
     inkscape:cy="245"
     inkscape:window-x="-8"
     inkscape:window-y="-8"
     inkscape:window-maximized="1"
     inkscape:current-layer="svg3713" />
  <path
     style="fill:#000000;stroke:none;stroke-width:1px;stroke-linecap:butt;stroke-linejoin:miter;stroke-opacity:1;fill-opacity:1"
     d="m 256.58392,94.98818 c 57.91963,-33.593381 71.24114,-41.702128 59.65721,-46.914894 -11.58392,-5.212766 -28.38061,-4.63357 -28.38061,-4.63357 l -15.6383,8.687944 -5.79196,13.321513 c 0,0 3.47518,-18.534279 0,-28.959811 C 262.95508,26.06383 245,12.163121 245,12.163121 c 0,0 -17.37589,-11.58392478 -22.58865,-3.4751777 -5.21277,8.1087467 -1.73759,21.4302597 -1.73759,21.4302597 l 11.58392,13.321513 c 0,0 10.42554,9.26714 10.42554,16.217494 0,6.950355 -1.1584,16.796691 -1.1584,16.796691 l -30.1182,12.742316 c 0,0 -11.00473,-5.212765 -16.21749,-10.425531 -5.21277,-5.212766 -13.90071,8.108747 -13.90071,8.108747 0,0 0,7.52955 5.21276,13.900707 5.21277,6.37116 10.42553,24.32624 23.74705,23.16785 13.32151,-1.15839 30.1182,-11.00473 30.1182,-11.00473 0,0 1.73759,-2.89598 1.15839,5.21277 -0.57919,8.10875 -10.42553,27.80142 -10.42553,27.80142 L 73.55792,181.28842 c 0,0 -21.43026,-11.00473 -24.905438,-8.68795 -3.475177,2.31679 -4.633569,13.90071 -4.633569,13.90071 l 18.534278,21.43026 c 0,0 -5.212765,8.10875 33.593381,-7.52955 38.806148,-15.6383 128.581558,-37.64775 128.581558,-37.64775 l -2.31678,19.11347 c 0,0 8.68794,5.79196 12.16312,0.5792 3.47518,-5.21277 9.26714,-22.58865 9.26714,-22.58865 l 31.85579,-5.21277 -27.22222,44.01891 -56.18204,64.86998 c 0,0 -54.44444,56.76123 -64.29078,64.29078 -9.84633,7.52955 -52.127656,44.01891 -52.127656,44.01891 l -26.643026,14.47991 33.014185,-6.37116 41.122927,-30.1182 c 0,0 101.93854,-105.41372 101.35934,-106.57211 -0.57919,-1.15839 15.0591,-9.84633 17.95509,-1.73759 2.89598,8.10875 13.32151,16.2175 13.32151,16.2175 0,0 10.42553,-11.00473 11.00473,-19.69267 0.57919,-8.68795 27.80141,-17.95509 27.80141,-17.95509 l 15.05911,-4.63357 -6.95036,53.28605 -28.38061,-6.37115 21.43026,21.43026 -96.14657,18.53428 c 0,0 -11.58393,-6.37116 -8.10875,-0.5792 3.47518,5.79196 26.64302,27.80142 26.64302,27.80142 0,0 15.6383,7.52955 26.06383,0.57919 10.42554,-6.95035 60.81561,-18.53427 60.81561,-18.53427 0,0 10.42553,-8.68795 9.26714,7.52955 -1.1584,16.21749 -5.79197,66.02836 -5.79197,66.02836 0,0 -9.84633,32.43499 -19.69267,34.75178 -9.84633,2.31678 -90.9338,-12.74232 -90.9338,-12.74232 l 48.65248,44.59811 c 0,0 22.58865,17.95508 33.59338,15.6383 11.00473,-2.31679 13.32151,-23.74705 13.32151,-23.74705 l 24.32624,-24.32624 c 0,0 22.00946,-74.13711 20.85107,-83.98345 -1.1584,-9.84634 -9.26714,-24.90544 -9.26714,-24.90544 0,0 33.01418,-6.95035 65.44917,-2.89598 32.43499,4.05438 34.17258,-1.73759 34.17258,-1.73759 0,0 4.63357,-8.68794 -6.37116,-14.4799 -11.00473,-5.79196 -60.23641,-21.43026 -60.23641,-21.43026 l -40.54373,12.16312 -13.90071,-6.95036 26.06383,-60.8156 c 0,0 13.90071,-2.89598 12.74231,-10.42553 -1.15839,-7.52955 -21.43026,-30.1182 -21.43026,-30.1182 0,0 -8.68794,-1.73759 -21.43026,8.10874 -12.74231,9.84634 -52.70685,37.64776 -52.70685,37.64776 l 48.07328,-64.86998 103.67613,-6.95035 41.12293,7.52955 c 0,0 30.6974,21.43026 37.64775,5.21276 6.95036,-16.21749 -6.37116,-25.48463 -6.37116,-25.48463 l -41.12293,-16.2175 -9.26714,9.84634 -115.83924,10.42553 60.8156,-89.775412 c 0,0 8.68795,-8.108747 0.5792,-19.113475 -8.10875,-11.004728 -24.32624,-17.955082 -24.32624,-17.955082 0,0 -22.58865,7.52955 -20.27187,15.638297 2.31679,8.108747 8.68794,12.163121 8.68794,12.163121 0,0 4.63357,-9.267139 11.00473,-7.529551 6.37116,1.737589 3.47518,12.163121 3.47518,12.163121 l -62.55319,97.884161 -37.06856,4.63357 z"
     id="path3723"
     inkscape:connector-curvature="0" />
</svg>
