<?xml version="1.0" encoding="UTF-8" standalone="no"?>
<!-- Created with Inkscape (http://www.inkscape.org/) -->

<svg
   xmlns:dc="http://purl.org/dc/elements/1.1/"
   xmlns:cc="http://creativecommons.org/ns#"
   xmlns:rdf="http://www.w3.org/1999/02/22-rdf-syntax-ns#"
   xmlns:svg="http://www.w3.org/2000/svg"
   xmlns="http://www.w3.org/2000/svg"
   xmlns:sodipodi="http://sodipodi.sourceforge.net/DTD/sodipodi-0.dtd"
   xmlns:inkscape="http://www.inkscape.org/namespaces/inkscape"
   version="1.1"
   id="svg815"
   width="500"
   height="493"
   viewBox="0 0 500 493"
   sodipodi:docname="忠a.svg"
   inkscape:version="0.92.4 (5da689c313, 2019-01-14)">
  <metadata
     id="metadata821">
    <rdf:RDF>
      <cc:Work
         rdf:about="">
        <dc:format>image/svg+xml</dc:format>
        <dc:type
           rdf:resource="http://purl.org/dc/dcmitype/StillImage" />
        <dc:title></dc:title>
      </cc:Work>
    </rdf:RDF>
  </metadata>
  <defs
     id="defs819" />
  <sodipodi:namedview
     pagecolor="#ffffff"
     bordercolor="#666666"
     borderopacity="1"
     objecttolerance="10"
     gridtolerance="10"
     guidetolerance="10"
     inkscape:pageopacity="0"
     inkscape:pageshadow="2"
     inkscape:window-width="716"
     inkscape:window-height="407"
     id="namedview817"
     showgrid="false"
     inkscape:zoom="1.7160243"
     inkscape:cx="250"
     inkscape:cy="246.5"
     inkscape:window-x="-8"
     inkscape:window-y="0"
     inkscape:window-maximized="0"
     inkscape:current-layer="svg815" />
  <path
     style="fill:#000000;stroke:none;stroke-width:1px;stroke-linecap:butt;stroke-linejoin:miter;stroke-opacity:1;fill-opacity:1"
     d="m 171.32624,38.460993 c 0,0 8.74114,9.323877 20.39598,14.568558 11.65485,5.244681 15.1513,19.813239 15.1513,19.813239 0,0 8.74114,71.09456 6.99291,74.59102 -1.74823,3.49645 -46.61939,13.40307 -46.61939,13.40307 0,0 -20.39598,-16.31679 -20.39598,-8.15839 0,8.15839 9.32388,34.38179 27.38889,37.87825 18.06501,3.49645 39.62648,-9.90662 39.62648,-9.90662 0,0 6.99291,36.13002 -1.16548,45.4539 -8.1584,9.32388 -58.27424,29.13711 -58.27424,29.13711 0,0 -10.48936,-19.23049 -10.48936,-26.80614 0,-7.57565 -6.41016,-30.88534 -6.41016,-30.88534 0,0 -29.71986,-33.21632 -36.71277,-30.88535 -6.992907,2.33097 11.0721,43.12293 11.0721,43.12293 l 21.56147,38.461 c 0,0 9.32388,12.82033 -16.31678,11.0721 -25.640666,-1.74823 -12.82034,8.74114 -12.82034,8.74114 l 30.88535,17.48227 c 0,0 21.56146,-4.0792 38.46099,-16.31679 16.89953,-12.23759 29.71986,-22.72695 30.3026,-17.48227 0.58274,5.24468 -28.55437,53.02955 -28.55437,53.02955 l -11.07211,11.07211 31.46809,-13.40308 c 0,0 20.97872,-32.05083 26.80615,-47.78487 5.82742,-15.73404 64.10165,-21.56146 64.10165,-21.56146 0,0 28.55437,1.16548 19.81324,-9.90662 -8.74114,-11.07211 -7.57565,-26.22341 -7.57565,-26.22341 l 34.96454,-44.87116 c 0,0 9.90662,-31.46808 -5.24468,-41.3747 -15.1513,-9.90662 -22.14421,-6.99291 -22.14421,-6.99291 l -9.90662,20.39598 -20.97872,80.41844 c 0,0 -2.33097,11.07211 -4.66194,11.65485 -2.33097,0.58274 -43.70568,13.40307 -43.70568,13.40307 l 2.91372,-55.36052 49.53309,-16.89952 5.24468,10.48936 13.40308,-42.54019 -69.92908,23.89243 0.58274,-81.583921 c 0,0 0,-26.806147 -27.97163,-36.130024 -27.97163,-9.323877 -40.79196,0.582742 -40.79196,0.582742 z"
     id="path825"
     inkscape:connector-curvature="0" />
  <path
     style="fill:#000000;stroke:none;stroke-width:1px;stroke-linecap:butt;stroke-linejoin:miter;stroke-opacity:1;fill-opacity:1"
     d="m 361.30024,243.58629 c 14.56855,3.49645 54.77777,17.48227 67.59811,25.05792 12.82033,7.57565 16.31678,-16.31679 16.31678,-16.31679 0,0 -22.72695,-18.06501 -51.86407,-17.48227 -29.13711,0.58275 -32.05082,8.74114 -32.05082,8.74114 z"
     id="path829"
     inkscape:connector-curvature="0" />
  <path
     style="fill:#000000;stroke:none;stroke-width:1px;stroke-linecap:butt;stroke-linejoin:miter;stroke-opacity:1;fill-opacity:1"
     d="m 238.92435,279.13357 c 0,0 -4.0792,19.81324 6.41017,15.1513 10.48936,-4.66194 59.43971,-33.79905 59.43971,-33.79905 l -15.1513,39.62647 c 0,0 -11.65484,32.63357 -19.81324,34.96454 -8.15839,2.33097 -29.71986,-11.0721 -29.71986,-11.0721 0,0 -25.64066,-24.47518 -14.56855,-37.29551 11.0721,-12.82033 13.40307,-7.57565 13.40307,-7.57565 z"
     id="path831"
     inkscape:connector-curvature="0" />
  <path
     style="fill:#000000;stroke:none;stroke-width:1px;stroke-linecap:butt;stroke-linejoin:miter;stroke-opacity:1;fill-opacity:1"
     d="m 326.91844,310.01891 c 2.33097,1.74823 48.36761,41.95745 48.36761,41.95745 l 58.27423,23.89243 c 0,0 21.56147,8.74114 17.48227,12.23759 -4.07919,3.49646 -32.63357,16.89953 -32.63357,16.89953 l -69.34633,11.0721 c 0,0 -81.58393,-0.58274 -92.07329,-7.57565 C 246.5,401.50946 199.88061,379.94799 187.64303,367.12766 175.40544,354.30733 125.2896,299.52955 125.2896,299.52955 l 20.97872,11.0721 48.95036,45.45391 c 0,0 27.97163,27.38888 53.02955,33.21631 25.05792,5.82742 75.7565,7.57565 75.7565,7.57565 l 50.11584,-6.41017 c 0,0 8.15839,1.16549 -6.99291,-19.81324 -15.1513,-20.97872 -43.70567,-57.69149 -43.70567,-57.69149 z"
     id="path833"
     inkscape:connector-curvature="0" />
  <path
     style="fill:#000000;stroke:none;stroke-width:1px;stroke-linecap:butt;stroke-linejoin:miter;stroke-opacity:1;fill-opacity:1"
     d="m 91.490544,334.49409 c 0,0 13.985816,37.29551 11.654846,45.4539 -2.33097,8.15839 -24.475177,33.21631 -24.475177,33.21631 0,0 -17.48227,6.99291 -21.561466,-11.0721 -4.079196,-18.06501 13.403073,-39.62648 13.403073,-39.62648 0,0 16.899528,-18.64775 14.568558,-27.38889 -2.330969,-8.74113 6.410166,-0.58274 6.410166,-0.58274 z"
     id="path835"
     inkscape:connector-curvature="0" />
</svg>
