<?xml version="1.0" encoding="UTF-8" standalone="no"?>
<!-- Created with Inkscape (http://www.inkscape.org/) -->

<svg
   xmlns:dc="http://purl.org/dc/elements/1.1/"
   xmlns:cc="http://creativecommons.org/ns#"
   xmlns:rdf="http://www.w3.org/1999/02/22-rdf-syntax-ns#"
   xmlns:svg="http://www.w3.org/2000/svg"
   xmlns="http://www.w3.org/2000/svg"
   xmlns:sodipodi="http://sodipodi.sourceforge.net/DTD/sodipodi-0.dtd"
   xmlns:inkscape="http://www.inkscape.org/namespaces/inkscape"
   version="1.1"
   id="svg815"
   width="598"
   height="469"
   viewBox="0 0 598 469"
   sodipodi:docname="競a.svg"
   inkscape:version="0.92.4 (5da689c313, 2019-01-14)">
  <metadata
     id="metadata821">
    <rdf:RDF>
      <cc:Work
         rdf:about="">
        <dc:format>image/svg+xml</dc:format>
        <dc:type
           rdf:resource="http://purl.org/dc/dcmitype/StillImage" />
        <dc:title></dc:title>
      </cc:Work>
    </rdf:RDF>
  </metadata>
  <defs
     id="defs819" />
  <sodipodi:namedview
     pagecolor="#ffffff"
     bordercolor="#666666"
     borderopacity="1"
     objecttolerance="10"
     gridtolerance="10"
     guidetolerance="10"
     inkscape:pageopacity="0"
     inkscape:pageshadow="2"
     inkscape:window-width="1920"
     inkscape:window-height="1017"
     id="namedview817"
     showgrid="false"
     inkscape:zoom="1.803838"
     inkscape:cx="299"
     inkscape:cy="234.5"
     inkscape:window-x="-8"
     inkscape:window-y="-8"
     inkscape:window-maximized="1"
     inkscape:current-layer="svg815" />
  <path
     style="fill:#000000;stroke:none;stroke-width:1px;stroke-linecap:butt;stroke-linejoin:miter;stroke-opacity:1;fill-opacity:1"
     d="m 7.2068558,210.66194 c 5.5437352,4.43499 24.3924352,26.60993 24.3924352,26.60993 L 87.591017,205.1182 c 0,0 19.957443,-7.20685 24.392433,-8.3156 4.43499,-1.10875 14.96809,9.97872 21.62057,3.88062 6.65248,-6.09811 22.72931,-9.42435 27.71868,-10.5331 4.98936,-1.10875 53.77423,-7.76123 53.77423,-7.76123 0,0 22.72931,13.30496 26.05555,7.76123 3.32624,-5.54374 14.96809,-10.5331 7.20686,-19.40308 -7.76123,-8.86997 -41.57802,-13.30496 -41.57802,-13.30496 l -27.1643,14.41371 c 0,0 3.32624,-24.94681 7.76123,-26.60993 4.43499,-1.66312 18.8487,-7.76123 20.51182,-12.75059 1.66312,-4.98936 0.55437,-21.62057 -11.08747,-27.1643 -11.64184,-5.543736 -18.8487,-9.978724 5.54374,-14.968086 24.39243,-4.989362 39.91489,-4.989362 33.26241,-14.968085 -6.65249,-9.978723 -18.8487,-16.076832 -26.05556,-12.196217 -7.20685,3.880614 -29.3818,17.739952 -29.3818,17.739952 0,0 8.86998,-11.641844 -0.55437,-24.392435 -9.42435,-12.750591 -27.1643,-30.490543 -38.25177,-19.403073 -11.08747,11.08747 -21.62057,13.304965 -6.09811,19.403073 15.52246,6.098109 19.95745,16.631206 16.07683,25.501182 -3.88061,8.869977 -7.20685,15.522459 -7.20685,15.522459 l -32.70804,8.3156 c 0,0 -14.413714,-19.957444 -18.294328,-6.098106 -3.880615,13.859336 -7.76123,26.609926 2.771867,33.262416 10.533101,6.65248 13.304961,12.19621 23.283691,4.43498 9.97872,-7.76123 10.53309,-12.19621 22.72931,-18.8487 12.19622,-6.65248 18.29433,-11.08747 26.05556,-13.85933 7.76123,-2.77187 12.75059,1.10874 8.3156,12.75059 -4.43499,11.64184 -21.06619,58.20922 -21.06619,58.20922 l -16.63121,2.77186 c 0,0 -21.06619,-24.9468 -33.81678,-22.72931 -12.750595,2.21749 -6.098113,16.07683 -4.989366,18.29433 1.108746,2.21749 9.978726,14.96808 9.978726,14.96808 l -78.721043,21.62057 c 0,0 -12.750591,-12.19622 -18.294326,-4.98936 -5.5437352,7.20685 -5.5437352,4.98936 -5.5437352,4.98936 z"
     id="path825"
     inkscape:connector-curvature="0" />
  <path
     style="fill:#000000;stroke:none;stroke-width:1px;stroke-linecap:butt;stroke-linejoin:miter;stroke-opacity:1;fill-opacity:1"
     d="m 293.81797,69.29669 c 8.86997,1.108747 35.4799,5.543736 32.70803,-4.989361 -2.77186,-10.533097 -11.08747,-21.066194 -15.52245,-22.729315 -4.43499,-1.66312 -15.52246,-16.631205 6.65248,-16.631205 22.17494,0 39.91489,4.434988 39.36052,18.294326 -0.55438,13.859338 1.10875,18.8487 1.10875,18.8487 l 57.65484,-18.8487 c 0,0 51.00237,3.880614 33.26241,14.413711 -17.73995,10.533097 -45.45863,15.522459 -45.45863,15.522459 0,0 -23.83806,9.42435 -23.83806,11.641844 0,2.217494 23.83806,-5.543735 11.08747,18.848701 -12.75059,24.39243 -15.52246,31.59929 -15.52246,31.59929 l 117.52719,-14.96809 c 0,0 29.3818,8.86998 36.58865,23.83807 7.20686,14.96808 15.52246,23.28368 0,22.17494 -15.52245,-1.10875 -36.58865,-19.40308 -59.31796,-20.51182 -22.72932,-1.10875 -109.21159,3.32624 -109.21159,3.32624 l -64.8617,29.93617 c 0,0 -14.41371,36.58865 -22.72931,34.37116 -8.31561,-2.2175 -31.04492,1.10874 -32.15367,-14.96809 -1.10874,-16.07683 4.43499,-23.83806 21.0662,-23.28369 16.6312,0.55438 60.42671,-22.17494 60.42671,-22.17494 l -25.50118,-25.50118 c 0,0 23.28369,-8.3156 37.14302,3.88061 13.85934,12.19622 16.63121,22.72932 26.05556,-15.52245 9.42435,-38.251777 5.54373,-41.023644 5.54373,-41.023644 l 13.85934,1.66312 c 0,0 41.57802,-27.164303 16.07684,-18.294326 -25.50119,8.869976 -85.9279,41.023641 -85.9279,41.023641 0,0 -8.3156,13.859339 -14.96809,4.989359 -6.65248,-8.869974 -29.38179,-34.92553 -1.10874,-34.92553 z"
     id="path827"
     inkscape:connector-curvature="0" />
  <path
     style="fill:#000000;stroke:none;stroke-width:1px;stroke-linecap:butt;stroke-linejoin:miter;stroke-opacity:1;fill-opacity:1"
     d="m 120.85343,245.58747 c 8.3156,-0.55437 43.79551,-28.27305 54.3286,-26.05556 10.5331,2.2175 8.86998,12.19622 8.86998,12.19622 l -6.09811,64.30733 -52.66548,16.63121 c 0,0 0,-27.71868 -12.75059,-40.46927 -12.750596,-12.75059 -34.371163,-28.27305 -39.914899,-18.29433 -5.543735,9.97873 -7.206855,21.0662 9.978724,29.93617 17.185579,8.86998 24.946805,30.49055 25.501185,36.03428 0.55437,5.54374 -73.177308,35.47991 -59.872344,39.36052 13.304965,3.88062 7.206856,27.71868 22.174941,14.96809 14.968085,-12.75059 57.654843,-44.34988 57.654843,-44.34988 0,0 21.62057,-14.96809 14.96809,-4.98937 -6.65248,9.97873 -37.6974,60.98109 -37.6974,60.98109 0,0 -44.904256,23.83806 -37.6974,31.04492 7.206856,7.20685 16.076832,16.6312 24.946808,7.76123 8.869972,-8.86998 60.426712,-84.81915 60.426712,-84.81915 0,0 19.95745,68.18794 37.14303,67.0792 17.18558,-1.10875 21.06619,7.76122 19.95745,-17.18558 -1.10875,-24.94681 -52.66549,-55.99173 -52.66549,-55.99173 l 6.09811,-13.30496 16.07683,-6.65249 36.58865,2.77187 c 0,0 -5.54373,-11.64184 -13.85933,-16.07683 -8.31561,-4.43499 -12.19622,-32.15367 -2.77187,-46.56738 9.42435,-14.41371 23.28369,-12.19621 10.5331,-31.04491 -12.7506,-18.8487 -3.32625,-30.49055 -36.03428,-21.0662 -32.70804,9.42435 -91.471635,17.73995 -72.06856,31.04492 19.40307,13.30496 18.8487,12.75059 18.8487,12.75059 z"
     id="path829"
     inkscape:connector-curvature="0" />
  <path
     style="fill:#000000;stroke:none;stroke-width:1px;stroke-linecap:butt;stroke-linejoin:miter;stroke-opacity:1;fill-opacity:1"
     d="m 261.10993,332.06974 c 15.52246,-4.43499 38.25177,-3.32624 42.68676,-17.18558 4.43499,-13.85934 4.98936,-60.42671 -4.43499,-74.84042 -9.42435,-14.41372 -16.6312,-31.04492 -16.6312,-31.04492 l 24.9468,7.76123 c 0,0 -17.18557,-24.94681 -3.32624,-22.17494 13.85934,2.77186 63.19859,-16.07684 63.19859,-16.07684 0,0 52.11111,-19.95744 58.76359,4.43499 6.65248,24.39244 -2.77187,42.13239 -2.77187,42.13239 l -4.98936,87.03664 -11.64184,23.28369 c 0,0 -6.09811,11.64185 -10.5331,-7.20685 -4.43499,-18.8487 -1.10875,-45.45863 3.88061,-50.448 4.98936,-4.98936 4.43499,-38.80614 4.43499,-41.57801 0,-2.77187 -3.32624,-37.6974 -3.32624,-37.6974 l -74.84043,23.83806 -10.53309,5.54374 -0.55438,16.6312 c 0,0 6.65249,4.43499 34.92554,-3.88061 28.27305,-8.3156 37.14302,4.43499 24.39243,13.30496 -12.75059,8.86998 -16.6312,12.75059 -33.26241,8.31561 -16.63121,-4.43499 -27.71868,-7.76123 -27.71868,-7.76123 0,0 8.31561,43.24113 6.65249,46.013 -1.66312,2.77187 -11.64185,11.08747 12.19621,2.21749 23.83806,-8.86997 71.51419,-27.1643 71.51419,-27.1643 l -12.19622,20.51182 c 0,0 -27.1643,13.85934 -29.3818,16.07683 -2.21749,2.2175 -51.55673,72.06856 -51.55673,72.06856 0,0 -43.79551,57.10047 -57.10048,57.65485 -13.30496,0.55437 -52.66548,-14.96809 -13.30496,-32.70804 39.36052,-17.73995 84.26477,-64.30733 84.26477,-64.30733 l 37.14303,-39.91489 -54.32861,21.06619 c 0,0 -5.54373,13.85934 -13.85933,17.18558 -8.31561,3.32624 -18.29433,13.30496 -31.59929,9.97872 -13.30497,-3.32624 -6.65249,-19.95744 -1.10875,-21.06619 z"
     id="path831"
     inkscape:connector-curvature="0" />
  <path
     style="fill:#000000;stroke:none;stroke-width:1px;stroke-linecap:butt;stroke-linejoin:miter;stroke-opacity:1;fill-opacity:1"
     d="m 371.43026,325.97163 c 0,0 25.50118,0 24.94681,18.29433 -0.55437,18.29432 -11.08747,62.08983 -11.08747,62.08983 0,0 13.85934,20.51182 19.40307,20.51182 5.54374,0 88.69976,7.76123 88.69976,7.76123 l 63.19859,-7.76123 c 0,0 17.18558,-8.86997 22.17494,-1.66312 4.98936,7.20686 21.06619,15.52246 -0.55438,24.94681 -21.62056,9.42435 -37.14302,11.64184 -47.12175,6.09811 -9.97872,-5.54374 -33.26241,-11.64184 -84.26477,-12.19622 -51.00236,-0.55437 -94.79787,-17.18558 -86.48227,-57.10047 8.3156,-39.91489 6.65248,-39.36052 4.98936,-45.45863 -1.66312,-6.09811 -5.54373,-16.63121 6.09811,-15.52246 z"
     id="path833"
     inkscape:connector-curvature="0" />
</svg>
