<?xml version="1.0" encoding="UTF-8" standalone="no"?>
<!-- Created with Inkscape (http://www.inkscape.org/) -->

<svg
   xmlns:dc="http://purl.org/dc/elements/1.1/"
   xmlns:cc="http://creativecommons.org/ns#"
   xmlns:rdf="http://www.w3.org/1999/02/22-rdf-syntax-ns#"
   xmlns:svg="http://www.w3.org/2000/svg"
   xmlns="http://www.w3.org/2000/svg"
   xmlns:sodipodi="http://sodipodi.sourceforge.net/DTD/sodipodi-0.dtd"
   xmlns:inkscape="http://www.inkscape.org/namespaces/inkscape"
   version="1.1"
   id="svg815"
   width="557"
   height="467"
   viewBox="0 0 557 467"
   sodipodi:docname="與a.svg"
   inkscape:version="0.92.4 (5da689c313, 2019-01-14)">
  <metadata
     id="metadata821">
    <rdf:RDF>
      <cc:Work
         rdf:about="">
        <dc:format>image/svg+xml</dc:format>
        <dc:type
           rdf:resource="http://purl.org/dc/dcmitype/StillImage" />
        <dc:title></dc:title>
      </cc:Work>
    </rdf:RDF>
  </metadata>
  <defs
     id="defs819" />
  <sodipodi:namedview
     pagecolor="#ffffff"
     bordercolor="#666666"
     borderopacity="1"
     objecttolerance="10"
     gridtolerance="10"
     guidetolerance="10"
     inkscape:pageopacity="0"
     inkscape:pageshadow="2"
     inkscape:window-width="1920"
     inkscape:window-height="1017"
     id="namedview817"
     showgrid="false"
     inkscape:zoom="1.8115632"
     inkscape:cx="278.5"
     inkscape:cy="233.5"
     inkscape:window-x="-8"
     inkscape:window-y="-8"
     inkscape:window-maximized="1"
     inkscape:current-layer="svg815" />
  <path
     style="fill:#000000;stroke:none;stroke-width:1px;stroke-linecap:butt;stroke-linejoin:miter;stroke-opacity:1;fill-opacity:1"
     d="m 368.74232,118.13002 c 6.62411,-3.31205 43.05673,-15.45626 43.05673,-15.45626 l -41.4007,142.41844 c 0,0 -4.41608,-6.62411 -18.21632,-11.5922 -13.80023,-4.96809 -9.38416,-16.00827 -9.38416,-16.00827 l 30.36052,-34.22459 c 0,0 -1.10402,-14.35225 -10.48818,-20.42435 -9.38416,-6.0721 -19.32033,-14.35225 -28.70449,-5.52009 -9.38416,8.83215 -28.15248,5.52009 -19.32033,12.69621 8.83215,7.17613 16.56028,16.00828 16.56028,16.00828 0,0 -18.76832,36.98463 -19.87234,40.8487 -1.10402,3.86406 25.39244,36.43262 25.39244,36.43262 l 27.60047,3.86407 c 0,0 -4.41607,23.7364 -6.62411,24.84042 -2.20804,1.10402 -86.11348,8.28014 -86.11348,8.28014 0,0 31.46454,-76.72931 34.7766,-86.66548 3.31205,-9.93617 2.20804,-25.94444 2.20804,-25.94444 0,0 -24.28842,-33.67258 -32.01655,-33.12057 -7.72813,0.55201 -29.80851,8.83215 -29.80851,8.83215 l 16.56028,-36.43263 60.16903,-11.04018 c 0,0 21.52837,-2.20804 -1.10402,-12.14421 -22.63239,-9.936172 -43.05674,-0.55201 -43.05674,-0.55201 l -11.04018,4.96808 c 0,0 8.83215,-40.848696 13.24822,-43.608744 4.41608,-2.760047 -4.96808,-25.944444 -4.96808,-25.944444 0,0 -18.21631,-24.840426 -34.7766,-19.320331 -16.56028,5.520095 -27.04846,13.800236 -27.04846,13.800236 0,0 -1.65603,9.936171 8.83215,12.144208 10.48818,2.208038 28.15248,-1.104018 26.49645,21.528369 -1.65602,22.632388 -3.31205,51.888886 -3.31205,51.888886 l -11.04019,45.26478 c 0,0 -19.87234,4.41607 -16.56029,15.45626 3.31206,11.04019 4.41608,32.56856 20.42435,25.39244 16.00828,-7.17612 20.42435,-18.21631 30.91253,-19.87234 10.48818,-1.65603 21.52837,-5.5201 18.76833,3.86406 -2.76005,9.38416 -5.5201,29.80851 -9.38417,32.56856 -3.86406,2.76005 -25.39243,1.65603 -32.01654,4.41608 -6.62412,2.76004 -18.21632,0.55201 -17.1123,-3.31206 1.10402,-3.86407 -9.38416,1.65603 -7.72813,11.04019 1.65603,9.38416 -2.20804,33.12057 15.45627,28.70449 17.6643,-4.41607 35.3286,-14.35224 35.3286,-14.35224 l -13.24823,34.77659 c 0,0 -24.28841,-1.10402 -20.97636,6.62412 3.31206,7.72813 12.14421,17.6643 9.38416,17.6643 -2.76004,0 -64.03309,10.48818 -64.03309,10.48818 L 168.36288,161.18676 c 0,0 -36.98463,-43.60875 -35.3286,-53.54492 1.65603,-9.936166 -13.80024,6.07211 -13.80024,6.07211 0,0 -8.28014,26.49645 5.5201,41.95272 13.80023,15.45626 20.42435,6.62411 22.08038,28.70449 1.65602,22.08038 15.45626,134.69031 15.45626,134.69031 L 57.408983,344.4539 c 0,0 -13.800236,-17.6643 -22.632387,-7.17612 -8.832152,10.48818 13.800236,44.71276 13.800236,44.71276 0,0 6.624114,17.66431 35.328605,-0.55201 28.704493,-18.21631 159.530733,-60.16903 159.530733,-60.16903 0,0 1.65603,17.66431 9.93617,11.5922 8.28014,-6.0721 12.69622,-16.00827 12.69622,-16.00827 l 90.52955,-13.24823 c 0,0 6.0721,13.24823 14.35224,8.83215 8.28015,-4.41607 24.84043,-14.35224 41.95272,-7.17612 17.1123,7.17612 78.93736,42.50473 78.93736,42.50473 0,0 27.04846,18.76832 34.22458,13.80023 7.17612,-4.96808 -17.6643,-44.71276 -17.6643,-44.71276 0,0 -23.73641,-24.84043 -43.60875,-27.60047 -19.87234,-2.76005 -84.45744,1.65602 -84.45744,1.65602 l 54.64893,-179.40307 c 0,0 9.38416,0.55201 7.72813,-10.48818 -1.65602,-11.040189 -25.94444,-38.088652 -25.94444,-38.088652 0,0 -20.42435,6.624113 -19.32033,12.696218 1.10402,6.072104 -40.8487,15.456264 -40.8487,15.456264 0,0 -23.1844,-8.280142 -20.42435,1.656029 2.76005,9.936171 15.45626,28.704491 32.56856,25.392431 z"
     id="path825"
     inkscape:connector-curvature="0" />
  <path
     style="fill:#000000;stroke:none;stroke-width:1px;stroke-linecap:butt;stroke-linejoin:miter;stroke-opacity:1;fill-opacity:1"
     d="m 160.63475,73.417258 c 0,5.520094 6.62412,30.912532 20.97636,36.432622 14.35225,5.5201 19.32033,0 9.38416,20.97636 -9.93617,20.97636 -19.32033,36.43263 -9.38416,55.20095 9.93617,18.76832 12.69622,52.4409 8.83215,75.07328 -3.86406,22.63239 2.76005,39.74468 11.04019,40.29669 8.28014,0.55201 16.56029,3.86407 15.45627,-10.48818 -1.10402,-14.35224 -11.04019,-61.82506 -6.62412,-71.20922 4.41608,-9.38416 13.80024,-18.21631 -2.20803,-31.46454 -16.00828,-13.24822 -26.49646,-24.28841 -14.90426,-45.26477 11.5922,-20.97636 20.42435,-8.83215 24.28842,-33.12057 3.86406,-24.288414 0.55201,-22.080376 -18.21632,-29.256499 -18.76832,-7.176123 -43.05673,-22.632388 -38.64066,-7.176123 z"
     id="path827"
     inkscape:connector-curvature="0" />
  <path
     style="fill:#000000;stroke:none;stroke-width:1px;stroke-linecap:butt;stroke-linejoin:miter;stroke-opacity:1;fill-opacity:1"
     d="m 328.44563,345.00591 c 1.65602,2.76005 52.9929,79.48936 64.5851,86.66548 11.5922,7.17613 36.43263,29.25651 33.12057,5.5201 -3.31206,-23.73641 -40.29669,-69.55319 -43.05674,-68.44917 -2.76004,1.10402 -52.4409,-36.43263 -54.64893,-23.73641 z"
     id="path829"
     inkscape:connector-curvature="0" />
  <path
     style="fill:#000000;stroke:none;stroke-width:1px;stroke-linecap:butt;stroke-linejoin:miter;stroke-opacity:1;fill-opacity:1"
     d="m 194.85934,362.67021 c -12.69622,22.63239 -32.01655,57.961 -54.64894,66.79315 -22.63239,8.83215 -41.952717,8.83215 -17.11229,12.14421 24.84042,3.31205 34.77659,6.0721 50.23286,-7.72814 15.45626,-13.80023 35.88061,-25.94444 36.43262,-45.81678 0.55201,-19.87234 -9.38416,-32.01655 -14.90425,-25.39244 z"
     id="path831"
     inkscape:connector-curvature="0" />
</svg>
