<?xml version="1.0" encoding="UTF-8" standalone="no"?>
<!-- Created with Inkscape (http://www.inkscape.org/) -->

<svg
   xmlns:dc="http://purl.org/dc/elements/1.1/"
   xmlns:cc="http://creativecommons.org/ns#"
   xmlns:rdf="http://www.w3.org/1999/02/22-rdf-syntax-ns#"
   xmlns:svg="http://www.w3.org/2000/svg"
   xmlns="http://www.w3.org/2000/svg"
   xmlns:sodipodi="http://sodipodi.sourceforge.net/DTD/sodipodi-0.dtd"
   xmlns:inkscape="http://www.inkscape.org/namespaces/inkscape"
   version="1.1"
   id="svg815"
   width="448"
   height="553"
   viewBox="0 0 448 553"
   sodipodi:docname="資a.svg"
   inkscape:version="0.92.4 (5da689c313, 2019-01-14)">
  <metadata
     id="metadata821">
    <rdf:RDF>
      <cc:Work
         rdf:about="">
        <dc:format>image/svg+xml</dc:format>
        <dc:type
           rdf:resource="http://purl.org/dc/dcmitype/StillImage" />
        <dc:title></dc:title>
      </cc:Work>
    </rdf:RDF>
  </metadata>
  <defs
     id="defs819" />
  <sodipodi:namedview
     pagecolor="#ffffff"
     bordercolor="#666666"
     borderopacity="1"
     objecttolerance="10"
     gridtolerance="10"
     guidetolerance="10"
     inkscape:pageopacity="0"
     inkscape:pageshadow="2"
     inkscape:window-width="716"
     inkscape:window-height="407"
     id="namedview817"
     showgrid="false"
     inkscape:zoom="1.5298373"
     inkscape:cx="224"
     inkscape:cy="276.5"
     inkscape:window-x="-8"
     inkscape:window-y="0"
     inkscape:window-maximized="0"
     inkscape:current-layer="svg815" />
  <path
     style="fill:#000000;stroke:none;stroke-width:1px;stroke-linecap:butt;stroke-linejoin:miter;stroke-opacity:1;fill-opacity:1"
     d="m 71.249409,54.254137 c 4.57565,1.307329 56.215131,10.458629 54.907801,33.33688 -1.30733,22.878253 -5.22931,26.800233 -5.22931,26.800233 0,0 -20.2636,6.53665 -25.492912,-7.84397 C 90.205674,92.166667 96.742317,90.859338 79.093381,77.786052 61.444444,64.712766 53.600473,56.868794 71.249409,54.254137 Z"
     id="path827"
     inkscape:connector-curvature="0" />
  <path
     style="fill:#000000;stroke:none;stroke-width:1px;stroke-linecap:butt;stroke-linejoin:miter;stroke-opacity:1;fill-opacity:1"
     d="m 76.478723,184.987 c 3.921986,-3.26832 55.561467,-41.18085 55.561467,-41.18085 l -33.33688,61.44444 c 0,0 -1.307329,29.41489 -7.843972,28.76123 C 84.322695,233.35816 75.825059,230.08983 65.36643,218.32388 54.907801,206.55792 52.293144,189.56265 76.478723,184.987 Z"
     id="path829"
     inkscape:connector-curvature="0" />
  <path
     style="fill:#000000;stroke:none;stroke-width:1px;stroke-linecap:butt;stroke-linejoin:miter;stroke-opacity:1;fill-opacity:1"
     d="m 171.26005,19.609929 c 5.88298,3.268322 1.30733,30.722222 21.57092,38.566194 20.26359,7.843972 18.95626,13.073286 18.95626,13.073286 l -18.95626,28.107565 c 0,0 -24.83924,18.302596 -21.57092,27.453896 3.26832,9.1513 14.38061,4.57565 14.38061,4.57565 l 43.79551,-43.795503 c 0,0 16.99527,-28.107565 7.19031,-36.605201 -9.80497,-8.497636 -45.7565,-29.414894 -45.7565,-29.414894 0,0 -18.95627,-7.190307 -19.60993,-1.960993 z"
     id="path831"
     inkscape:connector-curvature="0" />
  <path
     style="fill:#000000;stroke:none;stroke-width:1px;stroke-linecap:butt;stroke-linejoin:miter;stroke-opacity:1;fill-opacity:1"
     d="m 345.13475,84.322695 c 2.61466,-0.653664 37.25887,-37.258865 42.48818,-45.102837 5.22932,-7.843971 2.61466,-20.917258 12.41962,-3.921986 9.80497,16.995272 11.1123,28.76123 11.1123,28.76123 0,0 -17.64894,11.765957 -23.53192,13.72695 -5.88298,1.960993 -28.76123,22.224588 -28.76123,22.224588 0,0 -7.84397,10.45863 -15.68794,4.57565 -7.84397,-5.88298 -11.76596,-16.995273 1.96099,-20.263595 z"
     id="path833"
     inkscape:connector-curvature="0" />
  <path
     style="fill:#000000;stroke:none;stroke-width:1px;stroke-linecap:butt;stroke-linejoin:miter;stroke-opacity:1;fill-opacity:1"
     d="m 260.81206,91.513002 83.66903,-29.414893 -13.72695,-9.1513 -60.79078,17.648936 c 0,0 -11.76596,-5.882979 -16.34161,-4.57565 -4.57565,1.307328 -1.30733,25.492907 7.19031,25.492907 z"
     id="path835"
     inkscape:connector-curvature="0" />
  <path
     style="fill:#000000;stroke:none;stroke-width:1px;stroke-linecap:butt;stroke-linejoin:miter;stroke-opacity:1;fill-opacity:1"
     d="m 274.53901,130.73286 c 0,0 120.92789,58.17612 132.69385,72.55674 11.76596,14.38061 11.76596,-16.34161 11.76596,-16.34161 0,0 -15.03428,-18.95626 -56.8688,-34.64421 -41.83451,-15.68794 -79.74704,-26.80023 -79.74704,-26.80023 0,0 -4.57565,-19.60993 -9.80497,-22.87825 -5.22931,-3.268326 -35.95153,-12.419626 -33.99054,-7.190312 1.96099,5.229312 15.68794,21.570922 15.68794,21.570922 0,0 -27.4539,62.09811 -34.6442,63.40544 -7.19031,1.30733 -37.25887,25.49291 -43.79551,22.22458 -6.53665,-3.26832 9.1513,11.76596 9.1513,11.76596 0,0 42.48818,-14.38061 52.29314,-28.10756 9.80497,-13.72695 37.25887,-55.56147 37.25887,-55.56147 z"
     id="path837"
     inkscape:connector-curvature="0" />
  <path
     style="fill:#000000;stroke:none;stroke-width:1px;stroke-linecap:butt;stroke-linejoin:miter;stroke-opacity:1;fill-opacity:1"
     d="m 193.48463,232.05083 c 11.76596,6.53664 6.53665,24.18558 22.22459,18.3026 15.68794,-5.88298 58.17612,-28.76123 61.44444,-20.91726 3.26833,7.84397 3.92199,54.25414 3.92199,54.25414 0,0 10.45863,84.32269 7.84397,86.28369 -2.61466,1.96099 -13.72695,-0.65367 -13.72695,-0.65367 l -104.58629,30.06856 -0.65366,-47.7175 c 0,0 9.1513,11.76596 24.18558,7.84398 15.03428,-3.92199 45.10283,-16.99528 45.10283,-16.99528 0,0 4.57565,-14.38061 -11.76595,-16.3416 -16.34161,-1.961 -60.79078,19.60993 -60.79078,19.60993 l 2.61465,-97.39599 c 0,0 -11.11229,-31.37588 -19.60992,-28.76122 -8.49764,2.61465 -11.76596,39.21985 -11.76596,39.21985 0,0 3.26832,13.72695 6.53664,19.60993 3.26832,5.88298 5.22932,12.41962 5.22932,12.41962 l -3.92199,66.0201 c 0,0 -9.80497,15.03428 -3.26832,32.02955 6.53664,16.99527 6.53664,18.3026 6.53664,18.3026 l -26.80024,5.88298 c 0,0 -4.57565,-7.84397 -8.49763,-7.19031 -3.92199,0.65367 7.19031,28.76123 7.19031,28.76123 0,0 -3.26833,15.68794 13.72695,4.57565 16.99527,-11.11229 25.4929,-19.60993 25.4929,-19.60993 l 72.55674,-21.57092 50.98582,-3.92199 c 0,0 10.45863,7.19031 5.22931,10.45863 -5.22931,3.26832 -18.3026,-1.30733 -18.3026,-1.30733 0,0 -3.92198,8.49764 1.30733,19.60993 5.22931,11.1123 18.3026,30.72223 18.3026,30.72223 l 16.34161,8.49763 c 0,0 9.1513,-15.03428 7.84397,-28.76123 -1.30733,-13.72695 -13.07329,-196.09929 -13.07329,-196.09929 0,0 16.99528,-11.76596 3.26833,-26.80023 -13.72696,-15.03428 -23.53192,-41.83452 -31.37589,-22.22459 -7.84397,19.60993 -76.47872,43.79551 -76.47872,43.79551 z"
     id="path839"
     inkscape:connector-curvature="0" />
  <path
     style="fill:#000000;stroke:none;stroke-width:1px;stroke-linecap:butt;stroke-linejoin:miter;stroke-opacity:1;fill-opacity:1"
     d="m 188.25532,283.69031 c 11.76596,-5.22932 33.99054,-23.53192 39.21986,-20.2636 5.22931,3.26833 13.72695,8.49764 13.72695,8.49764 l -26.80024,28.10756 c 0,0 -7.19031,10.45863 -14.38061,5.22932 -7.19031,-5.22932 -16.99528,-16.99527 -11.76596,-21.57092 z"
     id="path841"
     inkscape:connector-curvature="0" />
  <path
     style="fill:#000000;stroke:none;stroke-width:1px;stroke-linecap:butt;stroke-linejoin:miter;stroke-opacity:1;fill-opacity:1"
     d="m 362.78369,443.1844 c 0,0 26.80023,73.2104 33.99054,75.82506 7.19031,2.61465 29.4149,-12.41963 29.4149,-12.41963 0,0 11.11229,-20.26359 -4.57565,-31.37588 -15.68795,-11.1123 -58.82979,-32.02955 -58.82979,-32.02955 z"
     id="path843"
     inkscape:connector-curvature="0" />
  <path
     style="fill:#000000;stroke:none;stroke-width:1px;stroke-linecap:butt;stroke-linejoin:miter;stroke-opacity:1;fill-opacity:1"
     d="m 70.595745,483.05792 c 0,0 25.492907,-22.87825 27.4539,-16.99527 1.960995,5.88298 -9.1513,24.83924 -9.1513,24.83924 0,0 -8.497636,26.80024 -8.497636,33.99054 0,7.19031 -22.87825,11.76596 -22.87825,11.76596 0,0 -9.804965,-4.57565 -13.073286,-18.95626 -3.268322,-14.38062 1.307328,-40.52719 5.229314,-47.7175 3.921986,-7.1903 18.3026,-21.57092 18.3026,-21.57092 0,0 -4.57565,32.02955 -1.307328,33.33688 3.268321,1.30733 3.921986,1.30733 3.921986,1.30733 z"
     id="path845"
     inkscape:connector-curvature="0" />
</svg>
