<?xml version="1.0" encoding="UTF-8" standalone="no"?>
<!-- Created with Inkscape (http://www.inkscape.org/) -->

<svg
   xmlns:dc="http://purl.org/dc/elements/1.1/"
   xmlns:cc="http://creativecommons.org/ns#"
   xmlns:rdf="http://www.w3.org/1999/02/22-rdf-syntax-ns#"
   xmlns:svg="http://www.w3.org/2000/svg"
   xmlns="http://www.w3.org/2000/svg"
   xmlns:sodipodi="http://sodipodi.sourceforge.net/DTD/sodipodi-0.dtd"
   xmlns:inkscape="http://www.inkscape.org/namespaces/inkscape"
   version="1.1"
   id="svg815"
   width="476"
   height="579"
   viewBox="0 0 476 579"
   sodipodi:docname="事a.svg"
   inkscape:version="0.92.4 (5da689c313, 2019-01-14)">
  <metadata
     id="metadata821">
    <rdf:RDF>
      <cc:Work
         rdf:about="">
        <dc:format>image/svg+xml</dc:format>
        <dc:type
           rdf:resource="http://purl.org/dc/dcmitype/StillImage" />
        <dc:title></dc:title>
      </cc:Work>
    </rdf:RDF>
  </metadata>
  <defs
     id="defs819" />
  <sodipodi:namedview
     pagecolor="#ffffff"
     bordercolor="#666666"
     borderopacity="1"
     objecttolerance="10"
     gridtolerance="10"
     guidetolerance="10"
     inkscape:pageopacity="0"
     inkscape:pageshadow="2"
     inkscape:window-width="1920"
     inkscape:window-height="1017"
     id="namedview817"
     showgrid="false"
     inkscape:zoom="1.4611399"
     inkscape:cx="238"
     inkscape:cy="289.5"
     inkscape:window-x="-8"
     inkscape:window-y="-8"
     inkscape:window-maximized="1"
     inkscape:current-layer="svg815" />
  <path
     style="fill:#000000;stroke:none;stroke-width:1px;stroke-linecap:butt;stroke-linejoin:miter;stroke-opacity:1;fill-opacity:1"
     d="M 245.69858,105.39716 C 377.78723,88.287234 383.94681,80.074468 383.94681,80.074468 c 0,0 56.12057,11.634752 62.28014,28.744682 6.15957,17.10993 0,16.42553 0,16.42553 0,0 -21.21631,4.10638 -30.79787,0 -9.58156,-4.10638 -33.53546,-17.10993 -33.53546,-17.10993 l -142.35461,13.00355 0.68439,28.74468 c 0,0 28.06029,-0.6844 36.95745,-6.84397 8.89716,-6.15958 13.68794,-15.05674 13.68794,-15.05674 0,0 16.42554,-2.73759 23.95391,8.89716 7.52836,11.63475 8.21276,23.9539 8.21276,23.9539 0,0 -13.68794,6.15958 -15.05674,10.95036 -1.36879,4.79078 -3.42198,17.79432 -3.42198,17.79432 0,0 9.58156,10.26596 4.10638,10.95036 -5.47518,0.6844 -58.17376,13.68794 -58.17376,13.68794 l -1.36879,27.37589 80.75886,-15.74114 c 0,0 2.73759,-14.37234 15.74114,-17.10993 13.00354,-2.73758 34.21986,26.69149 34.21986,26.69149 0,0 17.79432,8.21277 13.68794,17.79433 -4.10638,9.58156 -15.74114,22.58511 -15.74114,22.58511 l -12.31914,8.21276 -26.69149,55.43617 c 0,0 29.42907,0.6844 38.32624,12.31915 8.89716,11.63475 -3.42199,17.10993 -3.42199,17.10993 l -34.90425,-8.21277 -23.26951,-2.73758 -59.54255,15.05673 3.42198,114.29433 c 0,0 -24.63829,75.28369 -32.16666,74.59929 -7.52837,-0.6844 -28.06029,-15.74113 -28.06029,-15.74113 l -19.84751,-23.26951 c 0,0 -5.47518,-8.89716 -2.73759,-10.26595 2.73759,-1.3688 21.90071,6.15957 21.90071,6.15957 0,0 25.32269,6.84397 29.42908,-5.47518 4.10638,-12.31915 15.74113,-91.70922 15.74113,-91.70922 l 0.6844,-42.43262 c 0,0 -7.52837,-4.10638 -14.37234,-1.3688 -6.84397,2.73759 -83.49646,28.74468 -83.49646,28.74468 0,0 -15.05673,13.00355 -26.00709,-0.68439 -10.95035,-13.68795 -8.89716,-31.48227 -4.79078,-32.85107 4.10638,-1.36879 26.69149,2.0532 26.69149,2.0532 l 97.86879,-21.90071 2.73759,-28.06029 c 0,0 -45.85461,19.16312 -50.64539,21.21631 -4.79078,2.0532 -32.85106,-26.69148 -32.85106,-26.69148 l 81.44326,-23.26951 11.63475,25.3227 2.73759,34.90425 53.38298,-16.42553 22.58511,-87.60284 -80.07447,15.05674 3.42198,23.9539 37.64185,-4.79078 -3.42199,13.68794 -37.64184,16.42554 -13.00355,-18.47873 1.3688,-26.69149 L 172.46809,289.5 c 0,0 -32.16667,-10.26596 -30.11348,-25.3227 2.05319,-15.05673 40.37943,2.0532 37.64184,-0.68439 -2.73758,-2.73759 -18.47872,-64.33334 -18.47872,-64.33334 0,0 -12.31915,-2.05319 -18.47872,-17.79432 -6.15958,-15.74114 6.84397,-11.63475 6.84397,-11.63475 l 31.48227,21.90071 5.47518,19.16312 6.15957,45.17021 39.69504,-6.84397 4.10638,-33.53546 -50.64539,12.31915 c 0,0 -9.58156,-20.53192 -2.73759,-21.21632 6.84397,-0.68439 52.69858,-6.15957 52.69858,-6.15957 l 43.11702,-13.68794 5.47518,-24.6383 -39.69504,7.52837 2.73759,26.00709 -13.00354,6.15957 -2.73759,-26.69149 -32.85107,13.68795 c 0,0 -21.9007,-2.05319 -15.74113,-14.37234 6.15957,-12.31915 47.2234,-19.16312 47.2234,-19.16312 l -6.15957,-32.85107 -95.13121,30.11348 -35.588649,16.42553 -56.804964,-23.9539 65.017733,-13.00355 123.19149,-24.6383 -1.3688,-29.429073 c 0,0 -26.69149,-31.48227 -11.63475,-45.85461 15.05674,-14.372341 41.74823,0.684397 41.74823,0.684397 0,0 4.79078,26.007092 1.36879,30.113475 -3.42198,4.106383 -9.58156,42.432621 -9.58156,42.432621 z"
     id="path825"
     inkscape:connector-curvature="0" />
</svg>
