<?xml version="1.0" encoding="UTF-8" standalone="no"?>
<!-- Created with Inkscape (http://www.inkscape.org/) -->

<svg
   xmlns:dc="http://purl.org/dc/elements/1.1/"
   xmlns:cc="http://creativecommons.org/ns#"
   xmlns:rdf="http://www.w3.org/1999/02/22-rdf-syntax-ns#"
   xmlns:svg="http://www.w3.org/2000/svg"
   xmlns="http://www.w3.org/2000/svg"
   xmlns:sodipodi="http://sodipodi.sourceforge.net/DTD/sodipodi-0.dtd"
   xmlns:inkscape="http://www.inkscape.org/namespaces/inkscape"
   version="1.1"
   id="svg815"
   width="415"
   height="421"
   viewBox="0 0 415 421"
   sodipodi:docname="則a.svg"
   inkscape:version="0.92.4 (5da689c313, 2019-01-14)">
  <metadata
     id="metadata821">
    <rdf:RDF>
      <cc:Work
         rdf:about="">
        <dc:format>image/svg+xml</dc:format>
        <dc:type
           rdf:resource="http://purl.org/dc/dcmitype/StillImage" />
        <dc:title></dc:title>
      </cc:Work>
    </rdf:RDF>
  </metadata>
  <defs
     id="defs819" />
  <sodipodi:namedview
     pagecolor="#ffffff"
     bordercolor="#666666"
     borderopacity="1"
     objecttolerance="10"
     gridtolerance="10"
     guidetolerance="10"
     inkscape:pageopacity="0"
     inkscape:pageshadow="2"
     inkscape:window-width="1920"
     inkscape:window-height="1017"
     id="namedview817"
     showgrid="false"
     inkscape:zoom="2.0095012"
     inkscape:cx="207.5"
     inkscape:cy="210.5"
     inkscape:window-x="-8"
     inkscape:window-y="-8"
     inkscape:window-maximized="1"
     inkscape:current-layer="svg815" />
  <path
     style="fill:#000000;stroke:none;stroke-width:1px;stroke-linecap:butt;stroke-linejoin:miter;stroke-opacity:1;fill-opacity:1"
     d="m 103.01064,72.654846 c 0,0 10.94799,3.483452 15.92435,1.990544 4.97636,-1.492908 37.32269,-15.92435 37.32269,-15.92435 0,0 0,-14.431442 10.94799,-7.962175 10.94799,6.469267 34.83452,34.33688 34.83452,34.33688 0,0 -0.49764,3.981087 -1.99054,13.933806 -1.49291,9.952719 -7.46454,13.933809 -7.46454,13.933809 l 4.47872,24.88179 2.48818,74.64539 c 0,0 -0.49764,91.06738 -3.48345,97.03901 -2.98582,5.97163 -14.43144,6.46927 -14.43144,6.46927 l -7.96218,-23.38889 c 0,0 1.49291,-17.91489 -1.49291,-19.90544 -2.98581,-1.99054 -12.4409,-2.98581 -12.4409,-2.98581 l -55.23758,15.42671 c 0,0 -20.403077,-5.97163 -16.42199,-14.92908 3.981088,-8.95744 11.94326,-7.46454 11.94326,-7.46454 v 5.97163 c 0,0 28.36525,-17.91489 40.80615,-17.91489 12.4409,0 33.83924,0.49764 33.83924,0.49764 l 1.99055,-80.11939 -6.46927,-42.29905 c 0,0 2.98581,-40.308514 -0.99527,-42.796693 -3.98109,-2.48818 -20.90071,4.976359 -20.90071,4.976359 L 121.9208,107.987 c 0,0 -23.886521,1.49291 -24.881793,-13.436173 -0.995272,-14.929078 2.48818,-23.388888 5.971633,-21.895981 z"
     id="path825"
     inkscape:connector-curvature="0" />
  <path
     style="fill:#000000;stroke:none;stroke-width:1px;stroke-linecap:butt;stroke-linejoin:miter;stroke-opacity:1;fill-opacity:1"
     d="m 226.42435,145.30969 c 0,0 8.95745,37.3227 19.4078,45.28487 10.45036,7.96218 22.89125,10.94799 22.89125,10.94799 0,0 7.46454,-8.95744 1.49291,-22.89125 -5.97163,-13.93381 -32.34633,-34.33688 -32.34633,-34.33688 z"
     id="path827"
     inkscape:connector-curvature="0" />
  <path
     style="fill:#000000;stroke:none;stroke-width:1px;stroke-linecap:butt;stroke-linejoin:miter;stroke-opacity:1;fill-opacity:1"
     d="m 306.54374,28.365248 c 0,0 10.94799,23.886525 22.89125,28.365248 11.94326,4.478724 7.96217,53.744684 7.96217,53.744684 l 11.94327,213.48581 c 0,0 5.97163,12.93854 -12.93854,8.95745 -18.91016,-3.98109 -8.45981,9.95272 -8.45981,9.95272 l 27.36998,50.26123 c 0,0 13.9338,21.39834 17.91489,0 3.98109,-21.39835 9.45508,-43.79196 9.45508,-43.79196 l -8.95744,-17.9149 c 0,0 -11.44563,-21.89598 -11.94327,-37.82033 -0.49763,-15.92435 -7.46454,-200.54728 -7.46454,-200.54728 0,0 5.97164,-16.421986 13.93381,-19.905438 7.96218,-3.483451 -0.99527,-29.36052 -0.99527,-29.36052 L 333.91371,17.914894 c 0,0 -31.8487,-2.48818 -27.36997,10.450354 z"
     id="path829"
     inkscape:connector-curvature="0" />
  <path
     style="fill:#000000;stroke:none;stroke-width:1px;stroke-linecap:butt;stroke-linejoin:miter;stroke-opacity:1;fill-opacity:1"
     d="m 83.602837,91.565012 c 4.976359,10.450358 22.393613,64.692668 22.393613,64.692668 0,0 20.90071,-23.38889 30.3558,-19.90543 9.45508,3.48345 12.44089,15.42671 12.44089,15.42671 l -28.86288,22.89125 -15.92435,6.46927 -10.94799,29.85816 62.20449,-21.89599 c 0,0 12.4409,2.48818 11.44563,9.45509 -0.99527,6.9669 -57.72577,44.78723 -57.72577,44.78723 0,0 -14.929079,9.45508 -27.369977,-2.98581 C 69.171395,227.91726 69.669031,201.04492 69.669031,201.04492 L 73.152482,95.048463 Z"
     id="path831"
     inkscape:connector-curvature="0" />
  <path
     style="fill:#000000;stroke:none;stroke-width:1px;stroke-linecap:butt;stroke-linejoin:miter;stroke-opacity:1;fill-opacity:1"
     d="M 24.881797,318.487 72.15721,288.62884 c 0,0 7.464539,-6.46927 0.497636,-10.45035 -6.966903,-3.98109 -55.237588,21.89598 -55.237588,21.89598 0,0 -14.9290783,18.41253 7.464539,18.41253 z"
     id="path835"
     inkscape:connector-curvature="0" />
  <path
     style="fill:#000000;stroke:none;stroke-width:1px;stroke-linecap:butt;stroke-linejoin:miter;stroke-opacity:1;fill-opacity:1"
     d="m 44.787234,354.31678 c 0,0 27.369976,-9.95271 44.289598,-32.34633 16.919618,-22.39362 17.914898,-29.36052 23.388888,-26.87234 5.474,2.48818 18.91017,16.91962 12.93854,26.87234 -5.97164,9.95272 -50.261234,34.33688 -50.261234,34.33688 0,0 -24.384161,12.4409 -28.862884,9.95272 -4.478724,-2.48818 -1.492908,-11.94327 -1.492908,-11.94327 z"
     id="path837"
     inkscape:connector-curvature="0" />
  <path
     style="fill:#000000;stroke:none;stroke-width:1px;stroke-linecap:butt;stroke-linejoin:miter;stroke-opacity:1;fill-opacity:1"
     d="m 135.85461,311.02246 c 0,0 33.83924,51.2565 49.76359,49.26596 15.92435,-1.99055 11.94327,-26.87234 11.94327,-26.87234 0,0 -41.30379,-32.34634 -50.75887,-33.83925 -9.45508,-1.49291 -10.94799,11.44563 -10.94799,11.44563 z"
     id="path839"
     inkscape:connector-curvature="0" />
</svg>
