<?xml version="1.0" encoding="UTF-8" standalone="no"?>
<!-- Created with Inkscape (http://www.inkscape.org/) -->

<svg
   xmlns:dc="http://purl.org/dc/elements/1.1/"
   xmlns:cc="http://creativecommons.org/ns#"
   xmlns:rdf="http://www.w3.org/1999/02/22-rdf-syntax-ns#"
   xmlns:svg="http://www.w3.org/2000/svg"
   xmlns="http://www.w3.org/2000/svg"
   xmlns:sodipodi="http://sodipodi.sourceforge.net/DTD/sodipodi-0.dtd"
   xmlns:inkscape="http://www.inkscape.org/namespaces/inkscape"
   version="1.1"
   id="svg815"
   width="605"
   height="561"
   viewBox="0 0 605 561"
   sodipodi:docname="嚴a.svg"
   inkscape:version="0.92.4 (5da689c313, 2019-01-14)">
  <metadata
     id="metadata821">
    <rdf:RDF>
      <cc:Work
         rdf:about="">
        <dc:format>image/svg+xml</dc:format>
        <dc:type
           rdf:resource="http://purl.org/dc/dcmitype/StillImage" />
        <dc:title></dc:title>
      </cc:Work>
    </rdf:RDF>
  </metadata>
  <defs
     id="defs819" />
  <sodipodi:namedview
     pagecolor="#ffffff"
     bordercolor="#666666"
     borderopacity="1"
     objecttolerance="10"
     gridtolerance="10"
     guidetolerance="10"
     inkscape:pageopacity="0"
     inkscape:pageshadow="2"
     inkscape:window-width="1920"
     inkscape:window-height="1017"
     id="namedview817"
     showgrid="false"
     inkscape:zoom="1.5080214"
     inkscape:cx="302.5"
     inkscape:cy="280.5"
     inkscape:window-x="-8"
     inkscape:window-y="-8"
     inkscape:window-maximized="1"
     inkscape:current-layer="svg815" />
  <path
     style="fill:#000000;stroke:none;stroke-width:1px;stroke-linecap:butt;stroke-linejoin:miter;stroke-opacity:1;fill-opacity:1"
     d="m 210.20922,61.670213 c 0,0 -2.65248,3.978723 7.95745,22.546099 10.60993,18.567378 17.24113,32.492908 13.92553,31.829788 -3.3156,-0.66312 -36.47163,-5.30497 -24.53546,6.6312 11.93617,11.93618 7.29432,25.86171 22.5461,16.57802 15.25177,-9.28369 40.45035,-27.85106 59.01773,-30.50355 18.56737,-2.65248 36.47163,-2.65248 23.87234,-10.609926 -12.59929,-7.957447 -29.17731,-7.294326 -29.17731,-7.294326 l 10.60993,-19.893617 c 0,0 15.9149,-13.262412 8.62057,-19.230497 -7.29433,-5.968085 -34.48227,-9.283688 -34.48227,-9.283688 l -1.98936,60.343974 -14.58865,0.66312 -3.31561,-29.840427 23.87234,-3.978723 -1.32624,-27.187944 c 0,0 -11.27305,13.262412 -21.88298,17.904256 -10.60993,4.641844 -15.25177,13.925532 -29.1773,7.294326 -13.92553,-6.631206 -9.94681,-5.968085 -9.94681,-5.968085 z"
     id="path825"
     inkscape:connector-curvature="0" />
  <path
     style="fill:none;stroke:none;stroke-width:1px;stroke-linecap:butt;stroke-linejoin:miter;stroke-opacity:1"
     d="m 381.29433,36.471631 c 11.27305,1.326241 15.91489,19.230497 39.78723,3.315603 23.87234,-15.914894 41.11348,-41.1134751 53.71277,-18.567376 12.59929,22.546099 39.12411,26.524823 6.6312,49.070922 -32.49291,22.546099 -62.99645,39.78723 -68.96454,41.11348 -5.96808,1.32624 -23.20922,5.96808 -23.20922,5.96808 l 19.2305,-59.680851 c 0,0 33.81915,-15.914893 33.81915,-7.294326 0,8.620567 -9.94681,29.177305 -9.94681,29.177305 l -37.79787,20.556742 -5.96809,17.90425 c 0,0 1.98936,10.60993 -12.59929,3.97872 -14.58865,-6.6312 -3.3156,-38.460989 -3.3156,-38.460989 0,0 11.93617,-12.59929 4.64184,-23.209219 -7.29432,-10.609929 -30.50354,-19.893617 -18.56737,-25.861702 11.93617,-5.968086 25.8617,-6.631206 25.19858,3.978723 -0.66312,10.609929 -2.65248,-1.989362 -2.65248,-1.989362 z"
     id="path827"
     inkscape:connector-curvature="0" />
  <path
     style="fill:#000000;stroke:none;stroke-width:1px;stroke-linecap:butt;stroke-linejoin:miter;stroke-opacity:1;fill-opacity:1"
     d="M 389.25177,117.37234 C 476.78369,74.269504 486.7305,71.617021 487.39362,55.039007 488.05674,38.460993 473.46809,9.2836879 456.22695,14.588652 438.98582,19.893617 432.35461,79.574468 432.35461,79.574468 l -37.79787,20.556742 5.96808,-38.460997 59.01773,-19.893617 -7.95744,-21.219858 -47.74468,23.209219 c 0,0 -23.87234,-7.957446 -30.50355,-10.609929 -6.63121,-2.652482 -20.55674,2.652483 -9.94681,14.588653 10.60993,11.93617 16.57802,8.620566 9.28369,35.80851 -7.29433,27.187939 -11.27305,41.113479 -5.30497,40.450359 5.96809,-0.66312 21.88298,-6.63121 21.88298,-6.63121 z"
     id="path829"
     inkscape:connector-curvature="0" />
  <path
     style="fill:#000000;stroke:none;stroke-width:1px;stroke-linecap:butt;stroke-linejoin:miter;stroke-opacity:1;fill-opacity:1"
     d="m 289.78369,5.3049645 c 0,0 -11.93617,24.5354615 6.6312,25.1985815 18.56738,0.663121 23.20922,5.304965 23.20922,5.304965 l -1.32624,99.468089 c 0,0 -85.54255,25.19858 -88.85815,23.87234 -3.31561,-1.32624 5.96808,-21.88298 -5.96809,-15.25178 -11.93617,6.63121 -9.94681,11.93617 -9.94681,11.93617 l -47.74468,10.60993 c 0,0 -7.29432,-22.5461 -15.91489,-4.64184 -8.62057,17.90425 19.23049,34.48227 19.23049,34.48227 l 16.57802,-5.96809 33.15603,-14.58865 c 0,0 19.89361,33.81915 3.3156,73.60638 -16.57801,39.78724 -84.21631,161.1383 -96.8156,167.10639 C 112.7305,422.4078 9.9468085,548.40071 9.9468085,548.40071 c 0,0 -10.60992907,9.28369 1.3262415,7.29433 11.93617,-1.98937 58.35461,-47.08156 58.35461,-47.08156 l 92.83688,-107.42554 55.03901,-84.87943 18.56737,-51.7234 c 0,0 17.90426,0.66312 45.0922,-7.95745 27.18794,-8.62057 32.49291,-27.85106 37.79787,0 5.30497,27.85106 1.32624,45.0922 1.32624,45.0922 0,0 -22.5461,-4.64185 -33.15602,5.96808 -10.60993,10.60993 -34.48227,-26.52482 -43.10284,-21.88298 -8.62057,4.64185 -3.97872,20.55674 -3.97872,20.55674 0,0 11.93617,3.3156 7.95744,35.80851 -3.97872,32.49291 -7.95744,49.07092 -7.95744,49.07092 0,0 -45.75532,-0.66312 -37.13476,11.93617 8.62057,12.5993 38.461,23.87235 38.461,23.87235 l 49.07092,-36.47164 c 0,0 36.47163,-47.08156 32.49291,-29.1773 -3.97873,17.90425 -4.64185,69.62766 -7.29433,74.2695 -2.65248,4.64185 -14.58865,25.19858 -5.96809,30.50355 8.62057,5.30496 24.53547,10.60993 24.53547,0 0,-10.60993 -1.98937,-65.64894 -1.98937,-65.64894 0,0 14.58866,25.19858 27.85107,19.2305 13.26241,-5.96809 76.25886,-47.74468 76.25886,-47.74468 0,0 107.42554,81.56383 133.95036,88.85815 26.52482,7.29433 31.82979,10.60993 25.19858,-9.28368 C 588.85106,431.69149 442.96454,350.79078 442.96454,350.79078 l 27.85106,-49.07092 c 0,0 9.28369,-15.25177 -4.64184,-29.84043 -13.92553,-14.58865 -37.79787,-16.57801 -32.49291,-13.26241 5.30497,3.3156 11.27305,33.81915 11.27305,33.81915 l -19.2305,49.07092 -18.56737,33.15603 -50.39716,21.21986 -17.24114,0.66312 -5.96808,-3.97872 2.65248,-84.21632 88.85815,53.04965 0.66312,-25.19858 -91.51063,-34.48227 -12.59929,39.78723 -47.08157,33.81915 -7.95744,1.32624 5.96808,-39.78723 c 0,0 -2.65248,5.96808 13.26241,-0.66312 15.9149,-6.63121 39.12412,-24.53546 39.12412,-24.53546 l 3.97872,15.91489 9.28369,-29.84043 c 0,0 0,-27.18794 3.3156,-33.15602 3.31561,-5.96809 4.64185,-14.58866 -3.97872,-21.88298 -8.62057,-7.29433 33.81915,-9.94681 33.81915,-9.94681 0,0 0,4.64184 5.30496,-1.32624 5.30497,-5.96809 -3.97872,-10.60993 -21.88298,-13.26241 -17.90425,-2.65249 -19.89361,3.97872 -19.89361,3.97872 l 4.64184,-14.58865 c 0,0 31.16667,-2.65248 21.88298,-16.57802 -9.28369,-13.92553 -36.47163,-13.92553 -36.47163,-13.92553 l -9.94681,15.9149 c 0,0 -72.94326,11.93617 -46.41844,25.19858 26.52482,13.26241 47.08156,-3.31561 47.08156,-3.31561 0,0 1.98936,15.9149 -1.98936,17.90426 -3.97873,1.98936 -70.29078,15.25177 -70.29078,15.25177 0,0 11.93617,-26.52482 9.28369,-35.14539 -2.65249,-8.62057 -12.59929,-38.46099 -12.59929,-38.46099 l 83.55319,-23.20922 85.54255,-9.28369 c 0,0 21.21986,-9.28369 58.35461,-1.98936 37.13475,7.29433 51.06028,8.62057 52.38652,0.66312 1.32625,-7.95745 -2.65248,-28.51418 -31.16666,-24.53546 -28.51419,3.97872 -64.98582,9.28369 -64.98582,9.28369 l -88.85815,13.26241 7.29432,-83.553193 c 0,0 13.26241,-25.198581 7.95745,-30.503546 C 344.8227,19.230496 320.95035,5.3049645 320.95035,5.3049645 Z"
     id="path831"
     inkscape:connector-curvature="0" />
  <path
     style="fill:#000000;stroke:none;stroke-width:1px;stroke-linecap:butt;stroke-linejoin:miter;stroke-opacity:1;fill-opacity:1"
     d="m 273.20567,287.13121 c 7.95745,13.26241 11.93617,15.25177 17.24114,9.9468 5.30496,-5.30496 16.57801,-10.60992 14.58865,-18.56737 -1.98936,-7.95745 -16.57801,-3.97873 -16.57801,-3.97873 z"
     id="path833"
     inkscape:connector-curvature="0" />
  <path
     style="fill:#000000;stroke:none;stroke-width:1px;stroke-linecap:butt;stroke-linejoin:miter;stroke-opacity:1;fill-opacity:1"
     d="m 361.40071,266.57447 c 9.28369,-2.65248 27.18794,0 35.14539,-13.92553 7.95745,-13.92554 25.19858,-59.01773 23.20922,-64.3227 -1.98936,-5.30496 -21.21986,-22.5461 -21.21986,-22.5461 0,0 17.90426,3.3156 25.8617,9.28369 7.95745,5.96808 23.87234,22.5461 20.55674,29.84043 -3.3156,7.29432 -13.92553,35.80851 -13.92553,35.80851 l 70.29078,-25.19859 c 0,0 23.87234,-0.66312 23.87234,6.63121 0,7.29433 -37.79787,13.92553 -37.79787,13.92553 l -62.33334,15.25178 c 0,0 -16.57801,28.51418 -30.50354,37.79787 -13.92553,9.28369 -24.53546,17.90425 -24.53546,17.90425 0,0 -41.7766,-31.16666 -8.62057,-40.45035 z"
     id="path835"
     inkscape:connector-curvature="0" />
</svg>
