<?xml version="1.0" encoding="UTF-8" standalone="no"?>
<!-- Created with Inkscape (http://www.inkscape.org/) -->

<svg
   xmlns:dc="http://purl.org/dc/elements/1.1/"
   xmlns:cc="http://creativecommons.org/ns#"
   xmlns:rdf="http://www.w3.org/1999/02/22-rdf-syntax-ns#"
   xmlns:svg="http://www.w3.org/2000/svg"
   xmlns="http://www.w3.org/2000/svg"
   xmlns:sodipodi="http://sodipodi.sourceforge.net/DTD/sodipodi-0.dtd"
   xmlns:inkscape="http://www.inkscape.org/namespaces/inkscape"
   version="1.1"
   id="svg815"
   width="522"
   height="452"
   viewBox="0 0 522 452"
   sodipodi:docname="是a.svg"
   inkscape:version="0.92.4 (5da689c313, 2019-01-14)">
  <metadata
     id="metadata821">
    <rdf:RDF>
      <cc:Work
         rdf:about="">
        <dc:format>image/svg+xml</dc:format>
        <dc:type
           rdf:resource="http://purl.org/dc/dcmitype/StillImage" />
        <dc:title></dc:title>
      </cc:Work>
    </rdf:RDF>
  </metadata>
  <defs
     id="defs819" />
  <sodipodi:namedview
     pagecolor="#ffffff"
     bordercolor="#666666"
     borderopacity="1"
     objecttolerance="10"
     gridtolerance="10"
     guidetolerance="10"
     inkscape:pageopacity="0"
     inkscape:pageshadow="2"
     inkscape:window-width="1920"
     inkscape:window-height="1017"
     id="namedview817"
     showgrid="false"
     inkscape:zoom="1.8716814"
     inkscape:cx="261"
     inkscape:cy="226"
     inkscape:window-x="-8"
     inkscape:window-y="-8"
     inkscape:window-maximized="1"
     inkscape:current-layer="svg815" />
  <path
     style="fill:#000000;stroke:none;stroke-width:1px;stroke-linecap:butt;stroke-linejoin:miter;stroke-opacity:1;fill-opacity:1"
     d="M 212.10875,20.836879 C 263.39953,4.8085106 260.72813,8.5484634 260.72813,8.5484634 l 11.21986,17.0969266 -4.27423,7.479906 -10.1513,-5.34279 -13.35698,13.356974 c 0,0 -21.90543,2.137116 -26.17966,-9.082742 -4.27424,-11.219859 -5.87707,-11.219859 -5.87707,-11.219859 z"
     id="path825"
     inkscape:connector-curvature="0" />
  <path
     style="fill:#000000;stroke:none;stroke-width:1px;stroke-linecap:butt;stroke-linejoin:miter;stroke-opacity:1;fill-opacity:1"
     d="m 273.55083,40.605201 c 5.34279,4.808511 18.69976,17.631206 18.69976,17.631206 l -1.60284,64.647753 c 0,0 16.56265,1.06856 13.89126,10.1513 -2.6714,9.08274 -12.28842,12.8227 -12.28842,12.8227 l 2.6714,32.59101 41.13948,-18.69976 c 0,0 41.67375,4.80851 42.74231,12.28842 1.06856,7.4799 -1.60283,20.83687 -1.60283,20.83687 0,0 -14.95982,-5.87706 -25.64539,-5.87706 -10.68558,0 -50.22223,3.73995 -50.22223,3.73995 0,0 -81.74468,17.09693 -82.27896,20.3026 -0.53428,3.20567 16.02837,6.94563 16.02837,6.94563 0,0 25.64539,7.4799 27.78251,10.1513 2.13711,2.67139 2.13711,31.52245 2.13711,31.52245 l -4.27423,6.41135 8.54847,80.67612 c 0,0 57.16784,22.43972 147.46099,31.52246 90.29314,9.08275 91.89598,6.41135 91.89598,6.41135 l 4.27423,8.54846 c 0,0 1.60284,0.53428 -14.42553,6.41135 -16.02837,5.87707 -71.59338,39.00237 -71.59338,39.00237 0,0 -4.27423,2.13711 -46.48227,-9.08275 -42.20804,-11.21985 -110.59575,-42.74231 -110.59575,-42.74231 l -24.04255,-18.16549 -96.70449,-45.41371 c 0,0 -6.94563,-3.73995 -23.50827,5.34279 -16.56265,9.08274 -67.319153,40.07092 -67.319153,40.07092 0,0 -44.345154,17.63121 -44.345154,11.21986 0,-6.41135 9.617021,-24.57683 9.617021,-24.57683 0,0 2.137116,10.68558 12.288416,6.94562 10.151301,-3.73995 64.113475,-34.19385 64.113475,-34.19385 0,0 0,-1.06856 -14.95981,-4.80851 -14.959811,-3.73995 -8.548464,-26.17967 -8.548464,-26.17967 l 26.713949,5.34279 c 0,0 17.09693,17.63121 39.00236,-8.54846 21.90544,-26.17967 33.65958,-46.48227 40.07093,-47.55083 6.41134,-1.06856 10.1513,18.16549 10.1513,18.16549 l -36.33097,35.79669 -8.01419,11.21985 89.22459,26.71395 1.60284,-75.86761 c 0,0 2.67139,-20.83688 -16.02837,-27.78251 -18.69977,-6.94562 -27.24823,-13.35697 -25.64539,-18.16548 1.60283,-4.80851 -61.44208,22.97399 -61.44208,22.97399 0,0 -21.37116,19.23405 -21.90544,17.63121 -0.53428,-1.60284 -24.042555,-22.974 -24.042555,-22.974 0,0 -5.342789,-16.56264 4.808511,-13.89125 10.151304,2.6714 14.959814,4.80851 14.959814,4.80851 l 169.36643,-43.27659 -5.34279,-29.38535 c 0,0 -37.93381,5.34279 -47.01655,10.68558 -9.08274,5.34279 -21.37116,14.95981 -21.37116,14.95981 0,0 -22.97399,2.6714 -24.57683,-10.1513 -1.60284,-12.82269 18.69976,-19.23404 18.69976,-19.23404 l -3.20567,-62.510637 c 0,0 -14.42553,-34.728133 -12.8227,-42.208038 1.60284,-7.479906 5.87707,-4.808511 5.87707,-4.808511 0,0 4.80851,1.602837 14.95981,14.425532 10.1513,12.822695 10.1513,22.439716 10.1513,22.439716 v 29.385348 l 1.06856,35.26241 58.77069,-14.95981 z"
     id="path827"
     inkscape:connector-curvature="0" />
  <path
     style="fill:#000000;stroke:none;stroke-width:1px;stroke-linecap:butt;stroke-linejoin:miter;stroke-opacity:1;fill-opacity:1"
     d="m 223.86288,80.141844 c 5.87707,-2.137116 35.26242,-17.096927 35.26242,-17.096927 0,0 3.73995,-5.342789 2.67139,10.685579 -1.06856,16.028369 -9.08274,26.179669 -9.08274,26.179669 0,0 -41.13948,-8.548463 -28.85107,-19.768321 z"
     id="path829"
     inkscape:connector-curvature="0" />
  <path
     style="fill:#000000;stroke:none;stroke-width:1px;stroke-linecap:butt;stroke-linejoin:miter;stroke-opacity:1;fill-opacity:1"
     d="m 301.86761,228.13712 c 3.20568,0.53427 12.28842,1.60283 17.63121,13.35697 5.34279,11.75414 47.01655,16.56265 45.94799,13.89125 -1.06856,-2.67139 3.73995,-21.37116 -5.87707,-28.85106 -9.61702,-7.47991 -38.46809,-13.35698 -38.46809,-13.35698 0,0 -24.04255,9.61703 -19.23404,13.35698 4.80851,3.73995 0,1.60284 0,1.60284 z"
     id="path831"
     inkscape:connector-curvature="0" />
</svg>
