<?xml version="1.0" encoding="UTF-8" standalone="no"?>
<!-- Created with Inkscape (http://www.inkscape.org/) -->

<svg
   xmlns:dc="http://purl.org/dc/elements/1.1/"
   xmlns:cc="http://creativecommons.org/ns#"
   xmlns:rdf="http://www.w3.org/1999/02/22-rdf-syntax-ns#"
   xmlns:svg="http://www.w3.org/2000/svg"
   xmlns="http://www.w3.org/2000/svg"
   xmlns:sodipodi="http://sodipodi.sourceforge.net/DTD/sodipodi-0.dtd"
   xmlns:inkscape="http://www.inkscape.org/namespaces/inkscape"
   version="1.1"
   id="svg10"
   width="475"
   height="365"
   viewBox="0 0 475 365"
   sodipodi:docname="曰a.svg"
   inkscape:version="0.92.4 (5da689c313, 2019-01-14)">
  <metadata
     id="metadata16">
    <rdf:RDF>
      <cc:Work
         rdf:about="">
        <dc:format>image/svg+xml</dc:format>
        <dc:type
           rdf:resource="http://purl.org/dc/dcmitype/StillImage" />
        <dc:title></dc:title>
      </cc:Work>
    </rdf:RDF>
  </metadata>
  <defs
     id="defs14" />
  <sodipodi:namedview
     pagecolor="#ffffff"
     bordercolor="#666666"
     borderopacity="1"
     objecttolerance="10"
     gridtolerance="10"
     guidetolerance="10"
     inkscape:pageopacity="0"
     inkscape:pageshadow="2"
     inkscape:window-width="1920"
     inkscape:window-height="1017"
     id="namedview12"
     showgrid="false"
     inkscape:zoom="2.3178082"
     inkscape:cx="243.58392"
     inkscape:cy="165.24232"
     inkscape:window-x="-8"
     inkscape:window-y="-8"
     inkscape:window-maximized="1"
     inkscape:current-layer="svg10" />
  <path
     style="fill:#000000;stroke:none;stroke-width:1px;stroke-linecap:butt;stroke-linejoin:miter;stroke-opacity:1;fill-opacity:1"
     d="m 179.04846,173.00827 c 68.16785,-19.84633 68.16785,-16.39479 67.73641,-20.70922 -0.43144,-4.31442 -5.1773,-9.06028 -5.1773,-9.06028 0,0 7.33451,0 10.3546,2.15721 3.0201,2.15721 18.55201,13.37471 18.55201,13.37471 0,0 3.45154,8.1974 3.0201,10.78605 -0.43144,2.58865 -14.23759,11.21749 -14.23759,11.21749 l -28.90662,8.1974 c 0,0 -1.72577,9.92317 -16.3948,17.25768 -14.66903,7.33452 -29.33806,-3.02009 -29.33806,-3.02009 l -15.10047,-15.96336 c 0,0 -3.0201,-6.47163 -0.43144,-12.08038 2.58865,-5.60874 9.92316,-2.15721 9.92316,-2.15721 z"
     id="path20"
     inkscape:connector-curvature="0" />
  <path
     style="fill:#000000;stroke:none;stroke-width:1px;stroke-linecap:butt;stroke-linejoin:miter;stroke-opacity:1;fill-opacity:1"
     d="m 135.90426,94.485816 c 31.49527,26.317964 40.98699,27.612294 40.98699,27.612294 0,0 15.53192,1.72577 28.47518,-3.88298 12.94326,-5.60875 100.95745,-28.906619 100.95745,-28.906619 0,0 40.12411,-13.374705 41.84988,-4.314421 1.72577,9.060284 -24.16076,133.74704 -24.16076,133.74704 l -8.62884,13.37471 c 0,0 -49.1844,2.58865 -88.01418,9.49173 -38.82979,6.90307 -56.51892,13.80614 -56.51892,13.80614 0,0 -9.06028,8.1974 -9.92316,-8.62884 -0.86289,-16.82624 -13.80615,-96.64303 -13.80615,-96.64303 0,0 1.72577,-23.29787 -7.33452,-29.33806 -9.06028,-6.04019 -45.301414,-21.572102 -45.301414,-21.572102 0,0 -7.765958,-5.608747 -11.217494,-2.15721 -3.451537,3.451532 -3.020095,24.160752 -3.020095,24.160752 0,0 9.923168,15.10048 14.237589,15.53192 4.31442,0.43144 20.709224,34.51537 20.709224,34.51537 0,0 14.66903,58.24468 13.3747,65.57919 -1.29433,7.33452 -7.33452,25.45508 -7.33452,25.45508 0,0 12.94327,15.10048 13.37471,19.84634 0.43144,4.74586 7.76596,15.10047 7.76596,15.10047 0,0 3.88298,5.17731 8.62884,-1.72576 4.74586,-6.90308 9.92317,-14.23759 9.92317,-14.23759 0,0 0,11.21749 31.06383,-0.43145 31.06383,-11.64893 124.25531,-21.14066 124.25531,-21.14066 0,0 2.15722,-3.88298 0.86289,4.31442 -1.29433,8.1974 1.29433,26.74941 1.29433,26.74941 0,0 3.02009,9.06029 7.76595,7.33452 4.74587,-1.72577 16.82624,-19.84634 16.82624,-19.84634 l 21.57211,-115.19503 c 0,0 10.78605,-45.73286 16.3948,-55.65603 5.60874,-9.92317 12.94326,-15.531917 6.04019,-22.003548 -6.90308,-6.471631 -32.7896,-31.495272 -32.7896,-31.495272 0,0 -16.3948,-4.314421 -26.31797,-1.294326 -9.92317,3.020094 -161.79078,40.986997 -161.79078,40.986997 0,0 -12.08038,-2.15721 -22.00355,-8.197399 -9.92316,-6.040189 -6.90307,7.765957 -8.19739,9.060284 z"
     id="path22"
     inkscape:connector-curvature="0" />
</svg>
