<?xml version="1.0" encoding="UTF-8" standalone="no"?>
<!-- Created with Inkscape (http://www.inkscape.org/) -->

<svg
   xmlns:dc="http://purl.org/dc/elements/1.1/"
   xmlns:cc="http://creativecommons.org/ns#"
   xmlns:rdf="http://www.w3.org/1999/02/22-rdf-syntax-ns#"
   xmlns:svg="http://www.w3.org/2000/svg"
   xmlns="http://www.w3.org/2000/svg"
   xmlns:sodipodi="http://sodipodi.sourceforge.net/DTD/sodipodi-0.dtd"
   xmlns:inkscape="http://www.inkscape.org/namespaces/inkscape"
   version="1.1"
   id="svg3713"
   width="500"
   height="391"
   viewBox="0 0 500 391"
   sodipodi:docname="父a.svg"
   inkscape:version="0.92.4 (5da689c313, 2019-01-14)">
  <metadata
     id="metadata3719">
    <rdf:RDF>
      <cc:Work
         rdf:about="">
        <dc:format>image/svg+xml</dc:format>
        <dc:type
           rdf:resource="http://purl.org/dc/dcmitype/StillImage" />
        <dc:title></dc:title>
      </cc:Work>
    </rdf:RDF>
  </metadata>
  <defs
     id="defs3717" />
  <sodipodi:namedview
     pagecolor="#ffffff"
     bordercolor="#666666"
     borderopacity="1"
     objecttolerance="10"
     gridtolerance="10"
     guidetolerance="10"
     inkscape:pageopacity="0"
     inkscape:pageshadow="2"
     inkscape:window-width="1920"
     inkscape:window-height="1017"
     id="namedview3715"
     showgrid="false"
     inkscape:zoom="2.1636829"
     inkscape:cx="174.89657"
     inkscape:cy="195.5"
     inkscape:window-x="-8"
     inkscape:window-y="-8"
     inkscape:window-maximized="1"
     inkscape:current-layer="svg3713" />
  <path
     style="fill:#000000;stroke:none;stroke-width:1px;stroke-linecap:butt;stroke-linejoin:miter;stroke-opacity:1;fill-opacity:1"
     d="m 298.10284,39.28487 c 21.26004,2.77305 47.14184,-5.083924 54.99881,10.630024 7.85698,15.713948 1.8487,24.957446 1.8487,24.957446 0,0 -38.36052,0.462175 -44.83096,-7.856974 -6.47045,-8.319149 -21.72223,-13.865248 -21.26005,-19.411347 0.46217,-5.546099 9.2435,-8.319149 9.2435,-8.319149 z"
     id="path3723"
     inkscape:connector-curvature="0" />
  <path
     style="fill:#000000;stroke:none;stroke-width:1px;stroke-linecap:butt;stroke-linejoin:miter;stroke-opacity:1;fill-opacity:1"
     d="m 218.60875,112.77069 c 22.64657,3.23522 30.50354,10.63002 30.50354,10.63002 0,0 11.55438,13.40307 9.2435,22.1844 -2.31087,8.78132 -22.64657,63.78014 -22.64657,63.78014 l -6.93262,17.56265 c 0,0 74.87234,53.15011 91.51063,57.77186 16.6383,4.62175 134.95509,37.89835 134.95509,37.89835 l 35.58747,5.08392 -20.3357,10.63003 c 0,0 -57.30969,-1.38653 -60.08274,0.46217 -2.77305,1.8487 -21.72222,6.93263 -21.72222,6.93263 0,0 -0.46218,10.16784 -8.31915,8.78132 -7.85698,-1.38653 -41.13357,-12.9409 -41.13357,-12.9409 0,0 -67.01537,-36.04964 -78.10757,-44.83097 -11.0922,-8.78132 -47.60402,-45.75532 -47.60402,-45.75532 0,0 -24.03309,36.51182 -30.50354,39.74705 -6.47045,3.23522 -42.5201,26.80614 -42.5201,26.80614 0,0 -45.293142,18.487 -51.301416,21.26005 -6.008275,2.77305 -49.452719,19.41135 -49.452719,19.41135 0,0 -18.024823,3.23522 -17.562648,-6.93262 0.462175,-10.16785 4.62175,-27.26833 4.62175,-27.26833 l 13.865248,12.9409 c 0,0 9.705674,4.62175 14.789598,1.8487 5.083924,-2.77305 65.628837,-29.57919 65.628837,-29.57919 l 58.23405,-43.90662 17.56264,-23.57093 -34.20094,-42.52009 c 0,0 -19.41135,-24.95745 -37.43617,-22.1844 -18.02482,2.77305 -24.49527,10.63003 -24.49527,10.63003 0,0 -24.495275,11.55437 -24.0331,-2.77305 0.462175,-14.32743 12.478724,-24.95745 12.478724,-24.95745 l 4.159574,6.47045 c 0,0 8.319152,0 22.646572,1.38652 14.32742,1.38653 37.89835,12.01655 37.89835,12.01655 l 38.36052,22.1844 16.17612,15.25177 23.10875,-63.78014 c 0,0 -19.87353,-13.86525 -16.17613,-27.7305 -2.77305,-10.63002 -2.77305,-10.63002 -2.77305,-10.63002 z"
     id="path4530"
     inkscape:connector-curvature="0" />
  <path
     style="fill:#000000;stroke:none;stroke-width:1px;stroke-linecap:butt;stroke-linejoin:miter;stroke-opacity:1;fill-opacity:1"
     d="m 139.11466,53.612293 c 18.94917,11.092199 18.94917,11.092199 18.94917,11.092199 0,0 29.5792,15.251773 17.56265,30.041371 -12.01655,14.789597 -42.05792,43.906617 -42.05792,43.906617 l -24.0331,8.31915 10.63002,-15.71395 c 0,0 34.20095,-29.57919 30.50355,-39.747042 -3.6974,-10.167848 -7.85697,-7.394799 -7.85697,-7.394799 0,0 -12.47873,-7.856974 -7.85698,-18.949172 4.62175,-11.092199 4.15958,-11.554374 4.15958,-11.554374 z"
     id="path4532"
     inkscape:connector-curvature="0" />
</svg>
