
<svg version="1.1" baseProfile="full" xmlns="http://www.w3.org/2000/svg" width="512" height="512" viewBox="0,0,512,512">

  <rect width="512" height="512" stroke="red" fill="white"></rect>

  <text x="2" y="12" font-size="12" text-anchor="start" fill="red">0</text>
  <path d="M256  64 H0 H512" stroke="lightgray" fill="white"></path>
  <text x="2" y="64" font-size="12" text-anchor="start" fill="red">64</text>
  <path d="M256 128 H0 H512" stroke="lightgray" fill="white"></path>
  <text x="2" y="128" font-size="12" text-anchor="start" fill="red">128</text>
  <path d="M256 192 H0 H512" stroke="lightgray" fill="white"></path>
  <text x="2" y="192" font-size="12" text-anchor="start" fill="red">192</text>
  <path d="M256 256 H0 H512" stroke="lightgray" fill="white"></path>
  <text x="2" y="256" font-size="12" text-anchor="start" fill="red">256</text>
  <path d="M256 320 H0 H512" stroke="lightgray" fill="white"></path>
  <text x="2" y="320" font-size="12" text-anchor="start" fill="red">320</text>
  <path d="M256 384 H0 H512" stroke="lightgray" fill="white"></path>
  <text x="2" y="384" font-size="12" text-anchor="start" fill="red">384</text>
  <path d="M256 448 H0 H512" stroke="lightgray" fill="white"></path>
  <text x="2" y="448" font-size="12" text-anchor="start" fill="red">448</text>
  <text x="2" y="512" font-size="12" text-anchor="start" fill="red">512</text>

  <path d="M64  0 V512" stroke="lightgray" fill="white"></path>
  <text x="64" y="12" font-size="12" text-anchor="start" fill="red">64</text>
  <path d="M128  0 V512" stroke="lightgray" fill="white"></path>
  <text x="128" y="12" font-size="12" text-anchor="start" fill="red">128</text>
  <path d="M195  0 V512" stroke="lightgray" fill="white"></path>
  <text x="192" y="12" font-size="12" text-anchor="start" fill="red">192</text>
  <path d="M256  0 V512" stroke="lightgray" fill="white"></path>
  <text x="256" y="12" font-size="12" text-anchor="start" fill="red">256</text>
  <path d="M320  0 V512" stroke="lightgray" fill="white"></path>
  <text x="320" y="12" font-size="12" text-anchor="start" fill="red">320</text>
  <path d="M384  0 V512" stroke="lightgray" fill="white"></path>
  <text x="384" y="12" font-size="12" text-anchor="start" fill="red">384</text>
  <path d="M448  0 V512" stroke="lightgray" fill="white"></path>
  <text x="448" y="12" font-size="12" text-anchor="start" fill="red">448</text>
  <text x="512" y="12" font-size="12" text-anchor="start" fill="red">512</text>




  <g transform="translate(256,256)">
    <ellipse fill="skyblue" stroke="black" stroke-width="" cx="0" cy="0" rx="155" ry="160"/>
    <ellipse fill="white" stroke="black" stroke-width="" cx="0" cy="30" rx="125" ry="130"/>
    <ellipse fill="white" stroke="black" stroke-width="" cx="-35" cy="-100" rx="35" ry="40"/>
    <ellipse fill="white" stroke="black" stroke-width="" cx="35" cy="-100" rx="35" ry="40"/>
    <ellipse fill="black" stroke="black" stroke-width="" cx="22" cy="-100" rx="8" ry="12"/>
    <ellipse fill="black" stroke="black" stroke-width="" cx="-22" cy="-100" rx="8" ry="12"/>
    <path d="M70 -30 L170 -60" stroke="black" stroke-width=""/>
    <path d="M70 -20 L180 -10" stroke="black" stroke-width=""/>
    <path d="M70 0 L170 30" stroke="black" stroke-width=""/>
    <path d="M-70 -30 L-170 -60" stroke="black" stroke-width=""/>
    <path d="M-70 -20 L-180 -10" stroke="black" stroke-width=""/>
    <path d="M-70 0 L-170 30" stroke="black" stroke-width=""/>
    <circle fill="red" stroke="black" stroke-width="0" cx="" cy="-53" r="20"></circle>
    <path d="M0 -33 L0 45" stroke="black" stroke-width=""/>
    <path d="M0 45 Q-45 120, -80 45" stroke="black" stroke-width="" fill="none"/>
    <path d="M0 45 Q45 120, 80 45" stroke="black" stroke-width="" fill="none"/>
 
    
  </g>
</svg>
